/* XPM */
static char *rcp03261223114583[] = {
/* columns rows colors chars-per-pixel */
"64 64 16 1 ",
"  c gray22",
". c #382818",
"X c gray22",
"o c #303028",
"O c #282830",
"+ c #202020",
"@ c #201818",
"# c #181818",
"$ c #181810",
"% c #181010",
"& c #101010",
"* c #100808",
"= c #080800",
"- c #080000",
"; c black",
": c black",
/* pixels */
"++++$##$+..&+%&+.+O+&+OO#&++##&#*#+&&&#+%+#.&&*#+#$&&*&&&&*$#&*#",
"&+.+#O.+%+++++&#+++&&+##.O&&&&.+#O&&&O++&O+#&&#++O+%++.%&+.+#O&.",
"&#++O&#++++O&#X.&+O#++&++&O+&&+++&$+###&&.&+++&&+.O+&#++&#++O&$+",
"X..&++.&#.+++XO+++%&&&OO%+++X..&++#+#+O&&O#.+.OO%+##X..+X..&++#+",
"&&+..&+.+#&*++##++.&&++#+#$&&*&#&##+#+&#*O++O+#O+#&&&#+#+&&%&##+",
"&##++..++.O#+$.#+&$#&&&#&#++&&&+###+#++.&O#+#+O+#$&###$$##+&$++.",
"##$#+#+.+#++++$++##+.O+.#++$&#+$#&++++.%&O+++#+++#*+#*#+$#+$#+..",
"..++.O*+&&#.+++#+&&.#O#O&####&$+&+#+#++&&+#$#&+O+O+&#&##+++##.$+",
"&&..&.#++###+&+#&.$+##O&&#++#++&+#$++###&#.&&&#+++&&*&###.*#.#&*",
"*&***=*=**&****&***&*==***************%****&&+++******+$&+***===",
"XX&&++++&OXXOOOXXOOXXXXOOXX+OXO+++O+#$&$+##&&&&#+#XXOOXOOX+OOOXX",
"##+&+#%##X+&&&+#O##++%O##$$&*###$O&&#++#&#+&&.$&#.##+#+O&###++##",
"###&%+##XO#+&&##++%O.#++%%%##+.#+##%O@.&+.#@$+#.##.#+&#+%#$&#+##",
"O%%.#+%$+##+&$..##$#.##+%##.+.+%++++#O##++%O##.+&++&#+#$####&$O&",
"#&$%&+#&$.#+$.#...&#++##o$##.#++++O&#++%O.#+.+%.O.%+###$####++##",
".%.#+#&&#++++$+O+.$$&%##..&++.&#.+++.##$#.#.#++++O+...##.++&$++%",
"&##+%*+&&#.+++&O+O&%##+.O.O.%+.+#&*+...&#+++.&#.++++#..$+.O.#&o#",
"+&$+##++###+&+#&+%#+++%&&++O+.++.O#+O+.$$&.%+.+#&*##+.#&+O#+&#.+",
"++OO#&++##&%+%+.+&$.O+#&**.#++.+#+++%+O&&#O+.++.O##%&#++++#+*&O#",
"&+##&O+%&+.+%O%##&#O#+.#&##+%*+&&#.+##&+%.+++.+++.#+.#&++O###.##",
"-+&++.&+&#++O&&###+++$+#.#$+##++###++.+%O&&##&##$&$.O+&..O.++&-&",
"##&#O#+.#&#...%%%.#O###.+&OO#&++##&%#%++&$+######&#O#.++###O+#&$",
"###+++$+#.#.$#%.#&#.+.+%.O.%+%+%%+#X..&++#.#*&####+++$%+#+&&%+&#",
"%%.#O###.+&+.+$+#.##.#++++O+..X%#+%O#++@+&++++.%%.#O##$+..&+&.+$",
".#&#.+.+%.O%####.+&++.&#.++++.+##++#+++O##+OOX+.#&#.+.+%++++$$#&",
"+#.##.#+++++++.+%.O.%+.+#&*##&&&&#$#+++&+# %$$###.##.#++++O#+.$&",
"#.+&++.&#.+#+##++++O+.++.O###.++#$++&**###.+O&%#.+&++.&#.+++&+#%",
"+%.O.%+.+#&+##.&#.++++.+++.#+# ++#$##&#$#+++%#++%.O.%+.+#&*#.+#&",
"++++O+.++.O$##+.+#&*##&##$O&.$+#.+#.&##+.$$+&$.O+++O+.++.O#+#%.&",
"&#.++++.+++%#+O++.O###.&+#&$+##.# %+$*$#+OX#&#O#+O++++.+++..O+%&",
".+#&*##&##$$##.#+++.#+#$&*+#+#*$.+#&&&#+#+.##+++$.#%+#&##$...#%%",
"******&***&&***%&#*O&******&***&*==**&&&&#+%.#O##=*=**&&*%**=**=",
"+++.+#++#+#+#&##$%+#&###OOOXXOOXXXXOO#..X..*%#.+.++.+.+%.+##++#+",
"OO++++OOXOOOXO+O#&O+.#&%&%+# .$#+++.#+$++&+&&$###..#+..+OOXOO+OO",
"+XO+++#&+++++++##&..O+&..&O.%O+..&%&#++++#+%OX+O+OO+@##++&+&&#++",
"++##++#%#+..#+.&$&OO#.++#&+..+&.%#+.#&++O##+.&#+++++#+.O&+#OO+..",
"+$.#+&+#O+OO+@##+*O++$%+##.$+.*=&%&O+&..O.#$#+&++$.#&+O#+&+++.OO",
"++$++#$#+++++#+.O&OO##$+..#&+O#+##O#.++###O#$##*+&#++++#+*&++++%",
"+++#+&&$#+$.#&+O#&O.+.+%&#++++#+#+++$%+#+&&+O###+.#&++O###.++#$+",
"+&+#&.+#&+&#++++#%+#.#++.#&++O#%.#O##$+..&+%&+.+$#+&..O.++&&+%#&",
"%+%#+# %&+.#&++O#&O++.&##+&..O.#&#.+.+%+++++&#++O#.++###O+#+++%+",
"+%O&.$&#.$#+&..O.&..%+.#%.++####.##.#++++O&#X.&++#$%+#+&&%+&.&.&",
"+O&$+###O##.++###&OO+.+%#+%+#+&.+&++.&#.+++XO+++&##$+..&+&+#+&+.",
"&++&&+O###+.#&++&*O+&.&..%%+..&O.O.%+.+#&*++##++O#$&#++++$#+##.$",
"+++&+%&+.+$#+&..&&O+#+&+..++&$.&++O+.++.O#+$.#+&+++&#+++.#+.$.#&",
"#+++++&#++O#.++++%+#+##.$+.O.#&.%.#++.+#++++$++#$###+$+&&#&+&#++",
"$##O&#X.&++#$%+++&O+.$.#&+O#+&#&##+%*+&&#.+++#+&&$###+#&&##+.#&+",
"#.#++XO+++&##$++&&.&+&#++++#+*&+&$+##++###+&+#&.+#&$####+++$#+&.",
"%$#*++##++O#$&##&&O#+.#&++O###.++OO#&++##&%+%#+# %&##+#.#O###.++",
"#&$#+$.#+&+++&###*O+$#+&..O.++&&+##&O+%&+.+%O&.$&#.#$$$+#.+.+$%+",
"##.+++$++#$###+%.&O###.++###O+#++&++.&+&#++O&$+###O#.#######+.$+",
"&##.+++#+&&$###*%&O+.+$%+#+&&%+&.OO%+##X..&++#+#*&X.###*&##$#+##",
"+.$#+&+#&.+#&$#&&&+##+.$+..&+&+#++#++$&#*&+@.&+++++#$#+++.###.$+",
"#&$##.#&.*&*=&$##&#..&+##++++$#+###&##$&&&+O##+OOXX#$##.#&.#.#&*",
"****&***&*==************$&&&&&&&&+.*********+# %$$#&**&***&**===",
"XOOOXXOOXXXXOOXX+OXO+++OOX+OX#&+..&+X+O$%+####.+O&OOXOOOXOOOXXOO",
"O###+.#+.O+.#+.O&+O#&+O++&++O###+.#+.O##&O++#+O++&++O##+O###+.#+",
"&+.+#O&.#O#O&.#O.++&&+##.O+%&+.+#O&.#O+#&..##+##.O+%&+.%&+.+#O&.",
"&#++O&$+##O&$#&#O#+.#+&++.O+&#++O&$+###$&OO+$+&++.O+&#++&#++O&$+",
"X..&++#+#+++###+++$+#.OO%+##X..&++#+#+O+*O+.+.OO%+##X..#X..&++#+",
"O#++@.&+.#@.&%.#O###.++OO#.XO#++@.&+.#+O&OO+.++OO#.XO#+XO#++@.&+",
"##++O##++#O###&#.+.+%.+##&%+##++O##++###&O.+#.+##&%+##++##++O##+",
".#++++%O.#++%#.##.#++++O#+$$.#++++%O.#+#%+#O#++O#+$$.#+$.#++++%O",
"##$#+#+.+#++++$++##+.O+.#++$&#+$#&++++.%&O+++#+++#*+#*#+$#+$#+.."
};
