/* XPM */
static char *rcp0326090597838[] = {
/* columns rows colors chars-per-pixel */
"64 64 16 1 ",
"  c #202020",
". c #282828",
"X c gray19",
"o c gray25",
"O c #484040",
"+ c gray22",
"@ c #483030",
"# c #403830",
"$ c #181810",
"% c #282820",
"& c #101008",
"* c #282018",
"= c #282820",
"- c #101008",
"; c black",
": c black",
/* pixels */
"oo++XX++oo++XXX++oX+++oo++o+XXXXoX++.XXXXXX+++oX++oo++o+XoX X+++",
"..X.  XX..X+  X. ...XX..X.X+.   ... $ .   X.  ... X.X.X+++...X. ",
"..X   .X..XX  =.*.= .X..X .X.   .=    .   =.**.=  =.X .XXX...X  ",
"+ @+XX =+ .XXXX..... =+ .X.=.@X@...@...@X@X$. ...@X$.X.=.@.=.=.@",
"...X..XX...+.X@=....XX.....==.......*==...X.  ....X....=.+...X..",
"X*. X=.XX*@XX=. ..@..XX*@@.. X@@.@.@.  X@@ ..$.@.@ .@@...+...X.@",
"#....X..#..+....$.XX..#..@@@..XX.XXX....XX@XXX.XXX@X.@@@@o....XX",
"@XX. ...@XX@X@X$.= $..@XX+X@.=.X= $X ..=.X..@@= $X..X+X@@+=.%.$X",
"+.X@.XX@+. ...X. *..X@+. +X+@XX@*..@X@@XX@+XX@*..@+X +X+X@==.@.@",
"..=.@===...X@@ ..XXX==... X* @@@XXX@.  @@@@==XXXX@@=. X*X@ .==X@",
"& ..@.. & X=....X@+X. & X@X  .=.@+X.$  .=.X+o @+X.X+X@X *+$   X.",
" =@X=.@. =$ ..@.@+.X@. =$.. ...@+.X@ ....@ X..+.X@ X$..  ..$..X@",
" ..X@..@. ..$.XXXXX=.@. ... .X=.XX=....X=.=.XXXX=.=. ...+ $ *@=.",
"X= $.X.@  .$.= $.+...@  ...X..XX+..X....XX.=..+..X.= $*@..$..@.X",
". $ ..X=.$.. *...@X@X=.$.@..=..@@X@@. =..@X...@X@@X.$ $*X*$ .=@@",
"=   .XX@XX. X.O*=...X@XX.XX...X...... ..X.O*==....O*    #.-.X@..",
".* .== X@@=.==X. X@@ X@@= $..===X@@=.@.===X.  X@@=X. ...@X$ XX@=",
". =.@.@XX@*X......XX@XX@*..X.@...XX.O+.@.......XX...=.=X+.$.XXX.",
"@  ....@=XX=..$ .=.X.@=XXXX=@...=.X.+o@...$ ..=.X.$  ..=..$X @X.",
"X  ==.+Xo @=.XXX@XX@+Xo @+X..=.XXX@X+X.=.XXX@@XX@XXX =.=& -X+X@X",
".*X.=.@...+=..@. @@@@...+.X@.=..@@@.=o.=..@.  @@@.@.X. = =-$X.@.",
"$$$$$$ $$$  $$$$$$$$-$$-$$$$ $$$-$$$$* $$ $$$$$$$ $$$$  $$$$-$$-",
"XXX@X.XX.X.X. ..  -$$... .. X $- .XXX.XX.X. .. .XXXXX@X.XX..XX.X",
"++XXXXX.o+++o+X+o.XX@oo++X+o+.o-oO@X+++X++o+X+o+o@XXXXXX++o++X++",
" ..$.@ XXXXXXXX.+XXXX@X.XX.=.Xo +.X=X  .XXXXX.=.=.XXXX=. ..@ .XX",
"@XXX.X...X@@.X@ ..XXX.$$X@ X..X$+O++X++X@@.X@ XX.=..+....$.X+X@@",
"..@@= . +X++X%.....+.X+X%...X.+ +X+XXXX@++X%...@X...@X@X$.= X@++",
"+XX@*.@.XXXXX..XXX.@XXXX..XXXX+ +XXXX.XXXXX....==.......*==.XXXX",
"@==  X@@ ..$.@.@. =..X..=. =. X +..@X..+.X@=.@.. X@@.@.@.  X..=X",
"X+o...XX@XXX.XXX.. X@XX. .$...X$+X=..XXXX=. .@@@..XX.XXX.... *. ",
"=.X..=.X..@@= $X. . .. .$. .= .$X .@...@X@X$.+X@.=.X= $X ..= X  ",
".=.@@XX@+XX@*..@*=..$. ..  X.=X @.X.*==...X. +X+@XX@*..@X@@X... ",
".=.  @@@@==XXXX@. X$...=..$.X X*@@==.  X@@ .. X* @@@XXX@.  @* *=",
"X..  .=.X+o @+X...X. X@XXXXX... X@......XX@XX@X  .=.@+X.$  . .  ",
".XX....@ X..+.X@XX  X.*..@@=.X.$+=.. ..=.X..@.. ...@+.X@ .... $.",
"=....X=.=.XXXX=.+X..== XXX@.=XX$X@.XX@@XX@+XX.. .X=.XX=....X.X.=",
"......XX.=..+..XX.=X...===X. .. XX...  @@@@==..X..XX+..X....=X.X",
"*=. =..@X...@X@@*..=.XX.+o *...$.X. $  .=.X+o@..=..@@X@@. =. .=.",
". ===X.   .X.X@X.@..X==.X@X..@X$ @.X * ..X.X@XX...X...... .. ..X",
"..@......XX@..X=o*.== =..X=o@*X &X=.X =XX@..X=oX..+.@...... =XX@",
" ....$ ...@@o@@oX .@..X @@oX.   $.X=.=.X@@o@@oX+.$o@...$ ..=.X@@",
"X@=.XXX@.X=XX @=XX XXX.X.X.=..=- ..XX..@=XX XXX.X.X.=.XXX@...@=X",
". =..@. @$ $- . $- =.=..Xo.=. .$ ...$.@. $- =.=..Xo.=..@. @.@. $",
"$$$$ $$$$ --$$---$$$ &- ** $$$ $ *= $$$---$$$ &- ** $$ $$$ $$---",
"o+++oo+$-++o++ooX+o+++++++++o+++oo++oo++ooX+X+++++++o+++o+++oo++",
"+...XXXo-.X@*.@.XXXXX..XXX.@XXXX.+XX@+..X.XX.X+XX XX+..X+...X+++",
" X@X.=Xo . XXX.@XX=XX=. . =..X.......+.X+XX=*X..@+X* X@* X@X.X+X",
" .XX+. X$.$ @+.@.X....==.......*==.X.@XXXX..$XXXX@+X .XX .XX+X..",
"o@@ X$X+ $ .+.X=..=.@.. X@@.@.@.  X.=..X...... +*X.=XXX.@XX=XX X",
"+.XX%  + . XXXX@ X .@@@..XX.XXX....  X@XX.=....++.@o @+.@.X.%@++",
"..XX+. X   .+...*.$.+X@.=.X= $X ..= @=.. X. .=.@.. X@@.@.@. +XX+",
"@.XXX*=X$.$..=.=  . +X+@XX@*..@X@@X.. .. ..=.=+@@@..XX.XXX..@@ .",
".+@+@  . XX.@ X. ... X* @@@XXX@.  @*..$. .@ X.X+X@.=.X= $X .....",
"=. .$+ .$ @=....X@XX@X  .=.@+X.$  . X$...=.=.X++X+@XX@*..@X@..@.",
"...$ .=X X@ ..@.@+.@.. ...@+.X@ ....O*==...X. @ X* @@@XXX@. $.XX",
"@X$. X X* X.$.XXXXXX.. .X=.XX=....X.X.  X@@ ...@X  .=.@+X.$ .= $",
".X.  ...   $.= $.+==..X..XX+..X....=.....XX@XXX.. ...@+.X@ . *..",
"@ ..$X*.$=X. *...@+o@..=..@@X@@. =. $ ..=.X..@... .X=.XX=...X.O*",
"X@XXXXXX ....XXX.@XXXX..$XX== =.X *.XX@@XX@+XX=..X..XX+..X..==X.",
"X..@@.XX*..=. . =..X...... @..X .X.@@.  @@@@==X@..=..@@X@@. ....",
"@+XX@@X. =X .$.. X@XX.=XX.O*=  X.O*=..  .=.X+o *+=$ ..X.O*==  .=",
".=X.....$.@X. ..@=.. X.@==X. ..==X. X@* ..X.X@X.*..@.===X.  * ..",
"@XX. ..X$XX@X@X$.= $..@XX+X@.=.X= $X ..=.X..@@= $X..X+X@@+=.%.$X",
"$$$$$$ $$$  $$$$$$$$-$$-$$  $$$-$$$ $* $$ $$$$$$$ $$$$  $$$$-$$-"
};
