/* XPM */
static char *rcp0326058412568[] = {
/* columns rows colors chars-per-pixel */
"64 64 16 1 ",
"  c #282020",
". c #181818",
"X c #282828",
"o c #403838",
"O c #505050",
"+ c #484848",
"@ c gray22",
"# c #383030",
"$ c #484040",
"% c #303028",
"& c #181818",
"* c #181810",
"= c #484840",
"- c #403838",
"; c #303028",
": c #101010",
/* pixels */
":::::::::::::.&&&:%$*%$o&-%#% #**** ..#X#% #$$&#:@%o&%:*#XX..:::",
":   * X.  .::::&&o&%:*#X#%#%:-o**.*&@ .%%:-o&  %#:$ X#$ .   :::.",
" #-$#  %% X  .::& X#$#&%%:. @. *.:&&@. . @. o.$. #% #$@. ..::::.",
"&o&&-@%%-:$:& :: &#$$&#: @:*#%:::&&&&.   #%-% -:$%:-o. ..&::. XX",
"&X#$%#-%$# %  .::&&&  %# #$#$:: .:.&&&.  @*% &-.. -. ...&:XX:. *",
"-%%:&%%%#-%&%@@.:::&.$. #$$&.: #$$-o&&:@ ... %#$%  @  &&@X #@$X$",
"$#$+=:#@Ooo-$X%%..:&&&:$-.% . @#o++##&&    @ %#X.    &&&%;-+O++-",
"-Oo+$&- $++o#%$%%X::.&$. .X* @--$+++#&:&*  ...  .. &&.#oo++oO$@$",
"@%$$@@#-$#o-%%#X#$*:::.&.:.: XX+++$o-=&:::  . .  :&& $@%@O$+$+%-",
"&@- o$o&&-@%%-:$:#%:::::.:::%@X %$o$-oX&*:::&   :::.%%@+$#++#$$X",
"%:&+##X#$%#-%$# %@ &::::::.%&;+X%#--$X+*.:::*:::::%#$@$o$+-X@-%$",
"%X%##&%%:&%%%#-%&&-X.:::::% + o$@oo@+$##X::::::*:: %@X%--%%$.%#%",
"$%@.#.. -X@@&%%$ #&X@*:%-: #$ #X.% #-%%X#%@::::%#-+#%-@#&o # ##o",
" %$#%$%-#$%%@X@#%X X#:.%$ %-$$&o$#@#:&#o-X@X.:: &#X-@%$ $$@%$%%&",
"XX&X%X.X# *X%.& X X*::&X$-%#-#-%%%-#%&-$-$  .::X#. &X&:- X##$X#%",
" X#XX@&.:*& X#&&&::&::.# @-%%@%%%$o%#%##-@ ..::&   .-%X #:X-X-%X",
"X &    % XX  XX** *&:::-.&%%%##$#%# %%@$-#- .::*&&&* & &::**& X#",
"& &&X  & &&&X&  X:&*:.&%#$-# o&&%$##o%#%o#$# :::*& : *:::&*& X& ",
"X  *&   & X   &::::::&o.&X#$$@&$ $ -%X&:.$. #.::&&&&:*:  *& X X ",
"* &  *&&:::::::::::::&X#X%%o-$$%#@o&@&# ::$ X :::&&::::::::::***",
"*:::::::*&& *&:::::::*XX X%####$% -o%%%$::  X&::::::::::::::::::",
":.X#$#o--$$%-$% ::::::&X-#%#o-X* %# #X--#:::X :::: & X$$X&.:::::",
": & $@#--$$$%%#.  :::: XX#X$$#o #X#@&X XXX :::::#:$--#@ #+$o::::",
":.X.@$@#%-+$$$@ $@.::: X XX:&$X$o&#-X.&*::X ::: @+XX@o-O-+$OO.::",
"::X#-o$oo#-$@#-*# *:::**&X#- #-X:& .&:*X &&::.$&%O+$$$O-+++O+$.:",
"::::#%X@$ %XXX# -:::::*&*& X$%.#$X- X *:::&##&%-O@+O$+O+++--@#+:",
":::& XX %@X &X& :::.X*: :*&&X#X*X#& *X::*:&% o@++OO+O+O-$+##@+XX",
"X:::&XX#&X X& &::::: :: &**    X&:* &:::&%%%$-$+#-=O=X@o#Xo$@:o%",
"%%::X*  X&   :::*. :.*::::& *&&  *&*:*&  #%X*+#$+#%o% $$%%%#:# X",
"##&:: :& **&*::&%%$-:::::::::&&&&&::: .#$%%$:#$-$$- $#*&# #.%#@ ",
"$@X::*&*& *:::#@-#@& &::::::::::::.:.$.%#$#%#%X-$+&%%$$@XoX&$$@#",
"#$%.::& *&:::-&*#-@O .:::::&.&:::::  -%Xo## $ $o&  %&:-%--$@.. $",
"%%X &::X:::&X-@%-$O#- .::::  :.::X# -:@#$$ $X#. -.$.$-:.% %$$:X&",
"XX% :::*:::%#%-#o$$O-@X ::: . ::*o&$-&%-:-X %-%o% -:@#$%% .:-#+X",
"-%..&:::.:#X# -%oo@o+$# .::::::X&X%@#$%X& -@: *%X.-&%-:#@%$o::#-",
":.@  .:::&$:o$%& $$+$$@@.:::.:.* $@X#%#$@%&$ $&..%#$%X&- X-#$+.-",
"$%$. &::X#X$X .o#X %@-@*X:::::%#.@##%$*%$-.#% %$-%#%#$@#- %-::%&",
":#. :.: :;@  ##&: %$#-$$#%:::&###:%#&%:*#$- :.#&&:%$*%$o&-%X&:#%",
"&-#@X.::$o#$%@ @ $$&X#%% & ::*-X$% &X#$#&X%$X &@%o&%:*#X#%#$@ %-",
"@#%#:&::XX@& X# #%X$ #-X.X%::&  %&#.#$$&#%&:$-.:$ X#$#&%%:.%$-@X",
"$o:#.&:::X$$  #X:.%@#%X$X.. ::X##-$@o&  %$-:*#X#% #$$&#: @:*#o&-",
"#X&  .:: %&-@#%. &#.:.%@%$*.::   X*% o.$. .$#&%%:-o&  %# #$#&%o%",
"&%:: .::: :&%:.XX#%& &#.@. X&::  X$X-% -:..$&#: @. o.$. #$$&%%%%",
"#:% .*:: #@%X &%#@%%X#%&@@%X *:XXXX%% &-.@@  %# #%-% -:$-.  %%#$",
"%# X ::: X%%:X# &%%%#@%%:& %*:*:X% %. %#$X%.$. #$*% &-.. -.$.#&&",
". &: .::. &&$#@.%#%-&%%%%X.:% ::*X# X#o%%#$ -:$-.&. %#$%-% -:@&$",
":$X.X.:.-.X:&&%#@%  %#%-&@ :.:*::& ##%#%%X%&-.. -%$-%#X.XX.o&%$%",
"..#% &::Xo%.%%#% .%@@%  o@* :.**:*&*XXXXXX:%#$%-%-&&:X@&..X#$.#$",
"$%.X .:: %#  @%%%#.X .%@.:. . X*::***&    X%#X.XX&#%#.  %#X#%- .",
"# %*&:::.X @X .#%-#%%#.X.&XXX.%*:*::*****&&:X@&...:%&   &.:%$%o ",
"&% &&::  .&:%%#%%&.#%-#% o@ :.#.:**:*******#.  %#  & *&.%X@&X-X%",
"&*&.:::.&*  .%-  %% &&#X.%:..  :::::::::&***** ******:&&:#& %%@ ",
"  .:::******&&&-&$:X&% X % ## **::::::::&:********::**& &  : % *",
"&.::::::::::::::*XX&&.*&*& *:**::::##%#::::::::::******& &*& & .",
".:::&X#$$& &***::::&& ****:::#o-+++&#XXX*::::::::::::****&&****:",
"::X#X%%o-+++++o***::::****::&+#@@@+% ++:*::::X@@+++$$ ::*****:::",
"::XX X%####$% ++++%$::::::#-:%$ @X* %# **::-#$-:.%@#@@@@ :::::::",
"::&X-#%#o-X* %@@@@+-#:::::@%o&%:*o #X&**:X+X:o@+@@@@@@@@@@ :::::",
":: XX#X$$#o #X@o@@@@XX :&&** X#$#X$o&**:X@%+@@+ @o@+@@oXX@@@::::",
":: X XX:&$X$o&#-X.@ :+@##&&**#$$&-X:**$&%%@@+@@&-  *%@%-&%- *:::",
"::**&X#- #-X:&$- :.#&@ @+%&&*o&  ***#% @++@#%#$@# $&..%#$%X& :::",
":::&*& X$%.#$&X%$X &@@+@@  ** &****- :.@@@:%$*%$o% %$-%#%#$@#*::",
":::.:*&&X#X*X#%&:$-.:$ @@+@#******X%$X &@%o&%:*#X:.#&&:%$*%$o:::",
"::::...*   X&%$-:*#X#% #++@$.&:::#%&:$-.:$ X#$#&%X &@%o&%:*#X#::"
};
