/* XPM */
static char *rcp03260221648553[] = {
/* columns rows colors chars-per-pixel */
"64 64 16 1 ",
"  c #201818",
". c #282018",
"X c #383830",
"o c #505048",
"O c #504840",
"+ c #383028",
"@ c #303028",
"# c #484038",
"$ c #282820",
"% c #101010",
"& c gray3",
"* c #484838",
"= c #383830",
"- c #282820",
"; c black",
": c black",
/* pixels */
";;;;;;;;;;;;;;;;;;%   %;;;; ;=X%  ..;;;$#=;&@.@$ @##%@; +;&@&;;;",
";   & .&  &;;;;;;%% #X% ;;;; & X&#+ ;;;& &#@%$$;=X%  $@ @#@%;;;&",
" @=#@  $$ .  &;;; %+$X%$&.;;;$ $ $;&;;%;;&#%@; +& X&#& @##%;;;;&",
"%X%%=+$$=;#;% ;; &&;# .@.&;;;;;;;;;;;;;;%%& $@ @$=$ =;#=&;;;& ..",
"%.@#$@=$#@ $  &;;%$X= @#;&+ ;;; &;&&;; %;$#=$@$@#$ %.;;;;;..;& &",
"=$$;%$$$@=$%$++&;;;@  ##.$$.;; @##=X;%%%. &$.&=%$=##= ;;;. @+#.#",
"#@#O*;@+oXX=#.$$&&;%=+&%@%$ & +@XOO@@;%%.#%&&$@#$.= .;;%$-=OoOO=",
"=oXO#%= #OOX@$#$$.;;&@#;&&.& +==#OOO@%;%& $#=$@$@#..;;@XXOOXo#+#",
"+$##++@=#@X=$$@.@#&;;;&%&;&; ..OOO#X=*%;;;  &   .;;;;#+$+o#O#O$=",
"%+= X#X%%=+$$=;#;@$;;;;;&;;;$+. $#X#=X.%&;;;%.. ;;;&$$+O#@OO@##.",
"$;%O@@.@#$@=$#@ $+ %;;;;;;&$%-O.$@==#.O&&;;;&;;;;;$@#+#X#O=.+=$#",
"$.$@@%$$;%$$$@=$%%=.&;;;;;$ O X#+XX+O#@@.;;;;;;&;; $+.$==$$#&$@$",
"#$+&@&& =.++%$$# @%.+&;;;  @# @.&$ @=$$.@$.;;;;$@=O@$=+@%X @ @@X",
" $#@$#$=@#$$+.+@$. .@;&&  $=##%X#@+@;%@X=.+.&;; %@.=+$# ##+$#$$%",
"..%.$.&.@ &.$&% . .&;;%.#=$@=@=$$$=@$%=#=#  &;;.@& %.%;= .@@#.@$",
" .@..+%&;&% .@%%%;;%;;&@ +=$$+$$$#X$@$@@=+ &&;;%   &=$. @;.=.=$.",
". %    $ ..  ..&& &%;;;=&%$$$@@#@$@ $$+#=@= &;;&%%%& % %;;&&% .@",
"% %%.  % %%%.%  .;%&;&%$@#=@ X%%$#@@X$@$X@#@ ;;;&% ; &;;;%&% .% ",
".  &%   % .   %;;;;;;%X&%.@##+%# # =$.%;&#& @&;;%%%%;&;  &% . . ",
"& %  &%%;;;;;;;;;;;;;%.@.$$X=##$@+X%+%@ ;;# . ;;;%%;;;;;;;;;;&&&",
"&;;;;;;;&%%&&%;;;;;;;&.. .$@@@@#$ =X$$$#;;  .%;;;;;;;;;;;;;;;;;;",
";&.@#@X==##$=#$ ;;;;;;%.=@$@X=.& $@ @.==@;;;. ;;;; % .##.%&;;;;;",
"; % #+@==###$$@&  ;;;; ..@.##@X @.@+%. ... ;;;;;@;#==@+ @O#X;;;;",
";&.&+#+@$=O###+ #+&;;; . ..;%#.#X%@=.&%&;;. ;;; +O..+X=o=O#oo&;;",
";;.@=X#XX@=#+@=&@ &;;;&&%.@= @=.;% &%;&. %%;;&#%$oO###o=OOOoO#&;",
";;;;@$.+# $...@ =;;;;;&%&% .#$&@#.= . &;;;%@@%$=o+Oo#OoOOO==+@O;",
";;;% .. $+. %.% ;;;&.&; ;&%%.@.&.@% &.;;&;%$ X+OOooOoOo=#O@@+O..",
".;;;%..@%. .% %;;;;; ;; %&&    .%;& %;;;%$$$#=#O@=*o*.+X@.X#+;X$",
"$$;;.&  .%   ;;;&& ;&&;;;;% &%%  &%&;&%  @$.&O@#O@$X$ ##$$$@;@ .",
"@@%;; ;% &&%&;;%$$#=;;;;;;;;;%%%%%;;; &@#$$#;@#=##= #@&%@ @&$@+ ",
"#+.;;&%&% &;;;@+=@+% %;;;;;;;;;;;;&;&#&$@#@$@$.=#O%$$##+.X.%##+@",
"@#$&;;% &%;;;=%&@=+o &;;;;;%&%;;;;;  =$.X@@ # #X%  $%;=$==#+&& #",
"$$. %;;.;;;%.=+$=#o@= &;;;;  ;&;;.@ =;+@## #.@& =&#&#=;&$ $##;.%",
"..$ ;;;&;;;$@$=@X##o=+. ;;; & ;;&X%#=%$=;=. $=$X$ =;+@#$$ &;=@O.",
"=$&&%;;;&;@.@ =$XX+XO#@ &;;;;;;.%.$+@#$.% =+; &$.&=%$=;@+$#X;;@=",
";&+  &;;;%#;X#$% ##O##++&;;;&;&& #+.@$@#+$%# #%&&$@#$.%= .=@#O&=",
"#$#& %;;.@.#. &X@. $+=+&.;;;;;$@&+@@$#&$#=&@$ $#=$@$@#+@= $=;;$%",
";@& ;&; ;-+  @@%; $#@=##@$;;;%@@@;$@%$;&@#= ;&@%%;$#&$#X%=$.%;@$",
"%=@+.&;;#X@#$+ + ##%.@$$ % ;;&=.#$ %.@#@%.$#. %+$X%$;&@.@$@#+ $=",
"+@$@;%;;..+% .@ @$.# @=.&.$;;%  $%@&@##%@$%;#=&;# .@#@%$$;&$#=+.",
"#X;@&%;;;.##  @.;&$+@$.#.&& ;;.@@=#+X%  $#=;&@.@$ @##%@; +;&@X%=",
"@.%  &;; $%=+@$& %@&;&$+$#&&;;   .&$ X&#& &#@%$$;=X%  $@ @#@%$X$",
"%$;; &;;; ;%$;&..@$% %@&+& .%;;  .#.=$ =;&&#%@; +& X&#& @##%$$$$",
"@;$ &&;; @+$. %$@+$$.@$%++$. &;....$$ %=&++  $@ @$=$ =;#=&  $$@#",
"$@ . ;;; .$$;.@ %$$$@+$$;% $&;&;.$ $& $@#.$&#& @#&$ %=&& =&#&@%%",
"& %; &;;& %%#@+&$@$=%$$$$.&;$ ;;&.@ .@X$$@# =;#=&%& $@#$=$ =;+%#",
";#.&.&;&=&.;%%$@+$  $@$=%+ ;&;&;;% @@$@$$.$%=&& =$#=$@.&..&X%$#$",
"&&@$ %;;.X$&$$@$ &$++$  X+& ;&&&;&%&......;$@#$=$=%%;.+%&&.@#&@#",
"#$&. &;; $@  +$$$@&. &$+&;& & .&;;&&&%    .$@.&..%@$@&  $@.@$= &",
"@ $&%;;;&. +. &@$=@$$@&.&%...&$&;&;;&&&&&%%;.+%&&&;$%   %&;$#$X ",
"%$ %%;;  &%;$$@$$%&@$=@$ X+ ;&@&;&&;&&&&&&&@&  $@  % &%&$.+%.=.$",
"%&%&;;;&%&  &$=  $$ %%@.&$;&&  ;;;;;;;;;%&&&&& &&&&&&;%%;@% $$+ ",
"  &;;;&&&&&&%%%=%#;.%$ . $ @@ &&;;;;;;;;%;&&&&&&&&;;&&% %  ; $ &",
"%&;;;;;;;;;;;;;;&..%%&&%&% &;&&;;;;@@$@;;;;;;;;;;&&&&&&% %&% % &",
"&;;;%.@##% %&&&;;;;%% &&&&;;; X=OOO%@...;;;;;;;;;;;;;&&&&%%&&&&;",
";;.@.$$X=OOOOOX&&&;;;;&&&&;;%O@@@@#%# #%;;;;;.++OOO## ;;&&&&&;;;",
";;.. .$@@@@#$ OOOO$ ;;;;;; =OO=;=.=&@$%;;%$=@#O@+@+@++++ ;;;;;;;",
";;%.=@$@X=.& $@ @.==@;;;;; .#&=%$@#= %%;;%;$#&$.&&%@...+++ ;;;;;",
";; ..@.##@X @.@+%. ... ;;;%%&$@#$..$%%;;+$X%$;&&$@#$.%+..+++;;;;",
";; . ..;%#.#X%@=.&%&;;.;;;& =$@$@#$%%;;&;# .@#@%$@$@#+@= .+ &;;;",
";;&&%.@= @=.;% &%;&. %;;;;% %;$#&$%%;;%.@$ @##%@; #&$#X%=$.. ;;;",
";;;%&% .#$&@#.= . &&;;;;;;;+$X%$;&@;;; $$;=X%  $@ @;&@.@$@#+&&;;",
";;;&;&%%.@.&.@%&&&&;;;;;;;;;# .@#@%;;;%@$%;#=&#& @##@%$$;&$#;;;;",
";;;;&&&&   .%;&&&;;;%;;;;;;@$ @##%@;;;;$#=;&@.@;#=& %@; +;&@;;;;"
};
