/* XPM */
static char * door_xpm[] = {
"64 64 24 1",
" 	c #383838",
".	c #007070",
"+	c #007878",
"@	c #000000",
"#	c #007474",
"$	c #006C6C",
"%	c #008C8C",
"&	c #009898",
"*	c #008484",
"=	c #74C8C8",
"-	c #007C7C",
";	c #005858",
">	c #20B4B4",
",	c #004040",
"'	c #20B0B0",
")	c #48C0C0",
"!	c #00A4A4",
"~	c #9CDCDC",
"{	c #009C9C",
"]	c #D8F4F4",
"^	c #B8E8E8",
"/	c #00CCCC",
"(	c #484848",
"_	c #545454",
"                                                                ",
" .+++++++++++++++++++++++++++@@@@@@.++++++++++###...$$$..##++++ ",
" .%&*=%%%%%%%%%%%%%%%%%%&*=*+@@@@@@.-.;>**-----++#+###+++*..>*+ ",
" .*-,*'''''''>>>>>===))&-,*'+@@@@@@.-.,;**----+-#####++--#.,.&+ ",
" .*+-+''''>>>>>>)===)))&+-+>-@@@@@@.-...*-*----#+##.##-+-#...&- ",
" .*&&!''>>>>>>)====))))&&&!>-@@@@@@.++++-*----++##.##++--##--&- ",
" .*''>>>*..;;;;,,,,,,,>>>>>>-@@@@@@.+**-*-.;;,,,,,,,,,,,***%&!- ",
" .*>>>>>~{{***....;;;,>>'>>'*@@@@@@.+*-*--..;;;;;;;;;;;,**%%&!* ",
" .*>>>>>~~)====))))>;,>'>'''*@@@@@@.+-*---+.+##.#.##-+;,**%&&&* ",
" .*>>>))]^==~=)))>>>;,'>'''!*@@@@@@.+*----+.##.#.##++-;,*%%&!!* ",
" .*>))))]^~~=)))>>>';,''''!!*@@@@@@.+----+-####.##++--;,*%%&!!* ",
" .*)))==]^==)))>>>'>;,'''!!!*@@@@@@.+---+--+##..#++---;,%%&&&!* ",
" .*)==~~]^)))>>>>'>';,'!!!!&*@@@@@@.+--+-+-+#...##++--;,%%&&!!* ",
" .*=^~~=]^))>>>>'>'';,!!!&&&-@@@@@@.+-+-++-+...##++---;,%&&!&!% ",
" .*^~~==]^)>>>>'>''';,!&&&&%-@@@@@@.+--++#-+#.##++---*;,%&&&!!% ",
" .*~===)]^>>>>'''''';,&!&&%%-@@@@@@.+-++##-+.##++-+--*;,%&&!!!% ",
" .*==)))]^>'>'''''!!;,!&%%%%-@@@@@@.+++##.-+.###++--**;,&&!&!!% ",
" .*=)))>]~'>'''''!!&;,&%&%%%-@@@@@@.+-++##-+.##++---**;,&&&!!'% ",
" .*))>>']~>'''''!!&!;,%&%%%*-@@@@@@.-++##.--#+++---***;,&&!!!'% ",
" .*)>>'>]~''''!!!&!&;,&%%%**+@@@@@@$++##.#--#++-+--**%;,&!!!!'% ",
" .*>>>>']~'''!!!&!&&;,%%%***+@@@@@@$+##.#.--+#++--**%*;,!&!!''% ",
" .*>'>>']~''!!!&!&&&;,%%****+@@@@@@$##.#..--#++-+-***%;,&!!!''% ",
" .*'>>'']~'!!!&!&&&%;,%*****+@@@@@@$#.#...**++-+--**%%;,!!!!'>% ",
" .*>'''']~!!!&!&&&%%;,*%****+@@@@@@$.#...#**+-+--**%*&;,&!!!'>% ",
" .*''''']~!!&&&&&%&%;,%****-#@@@@@@$#...##%*++---*%*%%;,!!!'>'% ",
" .*''''!]~!&&&&&%&%%;,****--#@@@@@@$.#...#%*+-+-***%%&;,!!!'>)% ",
" .*''!!!]~&!&&&%&%%%;,***---#@@@@@@$$...#+%*-+--**%%&%.,!!!'>)% ",
" .*'!!!!]~!&&&%&%%%%;,**----#@@@@@@$$..##+%*+--**%*%%&.,!!''>)% ",
" .*!!!!!]~&&&%&%%%%*;,*-*---#@@@@@@$$.##+#&*---***%%&&.,!!'>))% ",
" .*!!!!&]~&&%&%%%%**;,-*----#@@@@@@$$####+&*+-***%%&&!.,!!'>))% ",
" .*&.^&!]~&%&%%%%***;,*-#;!+.@@@@@@$$$;%++&%--**%%&%&&.,!'&>])% ",
" .*-,.!&]~%&&%%%****;,-#$,;+.@@@@@@$$$,;+-&%-**%*%%&&!.,!&-.>)% ",
" .*+-+&&]~&&%%%*%***;,-#$$$+.@@@@@@$.$$.++!%-***%%&&!&.,!&+-%=% ",
" .*&&!&&]~&%%%*%****;,-####+.@@@@@@$....+-!%***%%&%&&!.,!&&&)=% ",
" .*!&&&%]~%%%*%****-;,---++#.@@@@@@$#+++--!&**%%%%&&!&.,''>)==% ",
" .*&&&%&]~%%*%****--;,--++##.@@@@@@$#++-+-!&*%*%&&&!&!.,'>))==% ",
" .*&&%&%]~%*%****---;,-++#+#$@@@@@@$##++-*'&**%%&%&&!!.,'>)=/=% ",
" .*&%&%%]~*%****-*--;,++++##$@@@@@@$#++-+-'!*%%%%&&!&!.,'>)===% ",
" .*%&%&%~~%****-*---;,+++##.$@@@@@@$++----'!%%%%&&!&!!.,>>)==)% ",
" .*&%&%%~=****-*----;,++##.#$@@@@@@$+-+--->!*%%&&&&!!!.,>))==)% ",
" .*%&%%%~=***-*----+;,+####.$@@@@@@$++---*>!%%&%&&!&!!.,>))==)% ",
" .*&%%%%~=****----+-;,####.#$@@@@@@$+----*>!%%%&&!&!&!.,>)===)% ",
" .*%%%%*)=***----+-+;,+##.#.$@@@@@@$+---*->!%%&&&&!&!!.,))===)% ",
" .*%%%*%))**----+-++;,##.#..$@@@@@@$+----*)!%&%&&!&!!'*,))===)% ",
" .*%%*%*))*------+++;,#.#...$@@@@@@$+---*-='%%&&!&!!!'*,))===)% ",
" .*%*%**>>-*----++++;,.#....$@@@@@@.+--*-*='%&&&&!&!!'*,)====)% ",
" .**%***>>*----++++#;,#.....$@@@@@@.+-*-**=>&&&&!&!!!'*,)===))% ",
" .*%****>'----++++##;,.....#$@@@@@@.+--*-*=>%&&!&!!!''*,)===))% ",
" .******''---+-++#+#;,#...#..@@@@@@.+-*-*%~)&&&&!&!!''*,)===)>% ",
" .******'!--+-++#+##;,.....#.@@@@@@.+*-**%~)&&&!&!!!'>*,====)>% ",
" .*****-'!-+-++++##.;,....##.@@@@@@.+-*-%%~)&&!&!!!''>*,====)>% ",
" .****-*!!--++++####;,...###.@@@@@@.+*-*%%~)&!&!&!!''>{;====)>% ",
" .***-*-!&-++++####.;,..#.##.@@@@@@.--**%%]=&&!&!!!''>{;====)>% ",
" .**-*--&&++++####..;,...##+.@@@@@@.-**%%&]=&!&!!!''>){;===))>% ",
" .*-*---&&-++#+##.#.;,..###+.@@@@@@.-**%%&]=!&!!!!''>){*===))>% ",
" .**----&%++#+##.#..;,.#.#++.@@@@@@.-*%%&&]~&!&!!!''>){*===))>% ",
" .*----+%%+#+##.#...;;#.##+##@@@@@@.-*%%&&]~!&!!!!'>)=!'===)>>% ",
" .*---+-%%%%**---+++#;.##+#+#@@@@@@.-%%%&&]~~~~~^^^^^^>====)>>% ",
" .*$;&--%%***---+++++$##$;&+#@@@@@@.-&.>&&]]]]]]]]]]]]]]==>.^>% ",
" .+$,;-+++####......###.$,;-#@@@@@@.--,.&&&!!!!!!''>))====%,.>% ",
" .#$$$+++#+##.#.....#.#.$$$-#@@@@@@.-+-+&&!!!!!!''>))====)%-+>% ",
" .####++#+##.#.....#.##....-#@@@@@@.-&&!&&!!!!!!'>>))====>&&!>% ",
"(.......$$$$$$$$$$$$........+@@@@@@...........................+(",
"____________________________(      (____________________________"};
