/* XPM */
static char *c5d260a9ca4b4a62a1a173fbf051960a[] = {
/* columns rows colors chars-per-pixel */
"64 64 112 2 ",
"   c #1E1D10",
".  c #312E09",
"X  c #3F3C0B",
"o  c #3D3A13",
"O  c #45410C",
"+  c #4C480E",
"@  c #544F0E",
"#  c #444110",
"$  c #494510",
"%  c #585312",
"&  c #5D5912",
"*  c #605B14",
"=  c #66610F",
"-  c #736E0D",
";  c #79730F",
":  c #666110",
">  c #6B6513",
",  c #6E6813",
"<  c #6A6518",
"1  c #756F12",
"2  c #756F1B",
"3  c #767110",
"4  c #7C7514",
"5  c #7F7914",
"6  c #7B751C",
"7  c #7E781C",
"8  c #605F51",
"9  c #827C0E",
"0  c #827B13",
"q  c #837C1B",
"w  c #8D850D",
"e  c #978F0F",
"r  c #9C940E",
"t  c #878117",
"y  c #8B8413",
"u  c #8B841A",
"i  c #948D14",
"p  c #9D9514",
"a  c #9A921B",
"s  c #9F981E",
"d  c #A49C0F",
"f  c #A59D13",
"g  c #A39B1B",
"h  c #AAA20F",
"j  c #B0A70E",
"k  c #B2A90E",
"l  c #BCB30E",
"z  c #ABA313",
"x  c #AAA21E",
"c  c #B4AB14",
"v  c #B9AF13",
"b  c #B0A718",
"n  c #B5AC1C",
"m  c #B8AF1D",
"M  c #BCB314",
"N  c #BCB31B",
"B  c #958E24",
"V  c #928B28",
"C  c #9E9621",
"Z  c #A69E23",
"A  c #A29A2E",
"S  c #ADA421",
"D  c #B4AB22",
"F  c #B8AF21",
"G  c #B8AF2B",
"H  c #BCB323",
"J  c #BAB12B",
"K  c #C4BA0E",
"L  c #CABF0F",
"P  c #C1B714",
"I  c #C5BB13",
"U  c #C9BE14",
"Y  c #C5BB1D",
"T  c #CCC20E",
"R  c #D2C70D",
"E  c #D4C90C",
"W  c #D9CE0E",
"Q  c #DDD20D",
"!  c #CCC213",
"~  c #CEC41D",
"^  c #D2C712",
"/  c #D4CA12",
"(  c #D9CE12",
")  c #D0C61C",
"_  c #D4CA1B",
"`  c #DCD112",
"'  c #E6DA07",
"]  c #E2D60D",
"[  c #E5DA0C",
"{  c #E9DE0D",
"}  c #E2D712",
"|  c #E5DA13",
" . c #E9DD10",
".. c #EDE10C",
"X. c #F1E506",
"o. c #F6EA06",
"O. c #FBEE05",
"+. c #F2E60A",
"@. c #F6EA0A",
"#. c #F5E90E",
"$. c #FAEE09",
"%. c #FBEE0A",
"&. c #FCEF0A",
"*. c #F8EB0D",
"=. c #FBEE0F",
"-. c #FFF200",
";. c #FEF107",
":. c #FDF00B",
">. c #EEE212",
",. c #EDE219",
"<. c #F5E911",
"1. c #FBEE10",
/* pixels */
"-.-.-.-.-.-.-.-.-.-.-.-.-.-.-.-.-.-.-.-.-.-.-.-.-.-.-.-.-.-.-.-.-.-.-.-.-.-.-.-.-.-.-.-.-.-.-.-.-.-.-.-.-.-.-.-.-.-.-.-.-.-.-.-.",
"-.-.-.-.-.-.-.-.-.-.-.-.-.-.-.-.-.-.-.-.-.-.-.-.-.-.-.-.-.-.-.-.-.-.-.-.-.-.-.-.-.-.-.-.-.-.-.-.-.-.-.-.-.-.-.-.-.-.-.-.-.-.-.-.",
"-.-.-.-.-.-.-.-.-.-.-.-.-.-.-.-.-.-.-.-.-.-.-.-.-.-.-.-.-.-.-.-.-.-.-.-.-.-.-.-.-.-.-.-.-.-.-.-.-.-.-.-.-.-.-.-.-.-.-.-.-.-.-.-.",
"-.-.-.-.-.-.-.-.-.-.-.-.-.-.-.-.-.-.-.-.-.-.-.-.-.-.O.X.-.-.-.-.-.-.-.-.-.-.-.-.-.-.-.-.-.-.-.-.-.-.-.-.-.-.-.-.-.-.-.-.-.-.-.-.",
"-.-.-.-.-.-.-.-.-.-.-.-.-.-.-.-.-.-.-.-.-.-.-.-.-.-.@.* E -.-.-.-.-.-.-.-.-.-.-.-.-.-.-.-.-.-.-.-.-.-.-.-.-.-.-.-.-.-.-.-.-.-.-.",
"-.-.-.-.-.-.-.-.-.-.-.-.-.-.-.-.-.-.-.-.-.-.-.-.-.-.-.M z -.-.-.-.-.-.-.-.-.-.-.-.-.-.-.-.-.-.-.-.-.-.-.-.-.-.-.-.-.-.-.-.-.-.-.",
"-.-.-.-.-.-.-.-.-.-.-.-.-.-.-.-.-.-.-.-.-.-.-.-.-.-.-.p ^ -.-.-.-.-.-.-.-.-.-.-.-.-.-.-.-.-.-.-.-.-.-.-.-.-.-.-.-.-.-.-.-.-.-.-.",
"-.-.-.-.-.-.-.-.-.-.-.-.-.-.-.-.-.-.-.-.-.-.-.-.-.-.-.r ..-.-.-.-.-.-.-.-.-.-.-.-.-.-.-.-.-.-.-.-.-.-.-.-.-.-.-.-.-.-.-.-.-.-.-.",
"-.-.-.-.-.-.-.-.-.-.-.-.-.-.-.-.-.-.-.-.-.-.-.-.-.-.-.z :.-.-.-.-.-.+.I i 9 w O.-.-.-.-.-.-.-.-.-.-.-.-.-.-.-.-.-.-.-.-.-.-.-.-.",
"-.-.-.-.-.-.-.-.-.-.-.-.-.-.-.-.-.-.-.-.-.-.-.-.-.-.;.D ..Q K d t 6 5 p P Q [ -.-.-.-.-.-.-.-.-.-.-.-.-.-.-.-.-.-.-.-.-.-.-.-.-.",
"-.-.-.-.-.-.-.-.-.-.-.-.-.-.-.-.-.-.-.-.W | l y q B C 6 x T ] #.:.-.-.-.-.-.-.-.-.-.-.-.-.-.-.-.-.-.-.-.-.-.-.-.-.-.-.-.-.-.-.-.",
"-.-.-.-.-.-.-.-.-.-.-.-.-.-.-.-.-.-.-.-.> > d ( &.-.-.J -.-.-.-.-.-.-.-.-.-.-.-.-.-.-.-.-.-.-.-.-.-.-.-.-.-.-.-.-.-.-.-.-.-.-.-.",
"-.-.-.-.-.-.-.-.-.-.-.-.-.-.-.-.-.-.-.-.-.-.-.-.-.-.-.Y -.-.-.-.-.-.-.-.-.-.-.-.-.-.-.-.-.-.-.-.-.-.-.-.-.-.-.-.-.-.-.-.-.-.-.-.",
"-.-.-.-.-.-.-.-.-.-.-.-.-.-.-.-.-.-.-.-.-.-.-.-.-.-.-.G -.-.-.-.-.-.-.-.-.-.-.-.-.-.-.-.-.-.-.-.-.-.-.-.-.-.-.-.-.-.-.-.-.-.-.-.",
"-.-.-.-.-.-.-.-.-.-.-.-.-.-.-.-.-.-.-.-.-.-.-.-.-.-.-.Y -.-.-.-.-.-.-.-.-.-.-.-.-.-.-.-.-.-.-.-.-.-.-.-.-.-.-.-.-.-.-.-.-.-.-.-.",
"-.-.-.-.-.-.-.-.-.-.-.-.-.-.-.-.-.-.-.-.-.-.-.-.-.-.:.m -.-.-.-.-.-.-.-.-.-.-.-.-.-.-.-.-.-.-.-.-.-.-.-.-.-.-.-.-.-.-.-.-.-.-.-.",
"-.-.-.-.-.-.-.-.-.-.-.-.-.-.-.-.-.-.-.-.-.-.-.-.-.-.:.n -.&.| I M N S n D A C V a u q 4 9 f o.-.-.-.-.-.-.-.-.-.-.-.-.-.-.-.-.-.",
"-.-.-.-.-.-.-.-.-.-.-.-.-.-.-.-.-.-.-.-.-.-.-.-.-.O.( 7 D b I { :.-.-.-.-.-.-.-.-.;.;.=.{ z ; -.-.-.-.-.-.-.-.-.-.-.-.-.-.-.-.-.",
"-.-.-.-.-.-.-.-.-.-.-.-.-.-.-.X.>.-.-.-.-.-.#.P b z ) n -.-.-.-.-.-.-.-.-.-.-.-.-.-.-.-.-...= -.-.-.-.-.-.-.-.-.-.-.-.-.-.-.-.-.",
"-.-.-.-.-.-.-.-.-.-.-.-.-.-.-.R % j -.[ d q p Q -.-.;.N -.-.-.-.-.-.-.-.-.-.-.-.-.-.-.-.-.e h -.-.-.-.-.-.-.-.-.-.-.-.-.-.-.-.-.",
"-.-.-.-.-.-.-.-.-.-.-.-.-.-.-.-.P O > 3 T ;.-.-.-.-.-.H -.-.-.-.-.-.-.-.-.-.-.-.-.-.-.-.;.+ #.-.-.-.-.-.-.-.-.-.-.-.-.-.-.-.-.-.",
"-.-.-.-.-.-.-.-.-.-.-.-.-.-.-.-.q o =.-.-.-.-.-.-.-.-.H -.-.-.-.-.-.-.-.-.-.-.-.-.-.-.-.E - -.-.-.-.-.-.-.-.-.-.-.-.-.-.-.-.-.-.",
"-.-.-.-.-.-.-.-.-.-.-.-.-.-.-.-.-.0 =.-.-.-.-.-.-.-.-.H -.-.-.-.-.-.-.-.-.-.-.-.-.-.-.-.y Q -.-.-.-.-.-.-.-.-.-.-.-.-.-.-.-.-.-.",
"-.-.-.-.-.-.-.-.-.-.-.-.-.-.-.-.-.M >.-.-.-.-.-.-.-.-.I *.-.-.-.-.-.-.%.] k w W -.-.-.%.t -.-.-.-.-.-.-.-.-.-.-.-.-.-.-.-.-.-.-.",
"-.-.-.-.-.-.-.-.-.-.-.-.-.-.-.-.-.[ ^ -.-.-.-.-.-.-.-.` _ ` M z g B B u i n 8 f -.-.-.K R -.-.-.-.-.-.-.-.-.-.-.-.-.-.-.-.-.-.-.",
"-.-.-.-.-.-.-.-.-.-.-.-.-.-.-.-.-.%.P -.-.-.-.-.&.E p B 2 K  .1.;.;.-.-.-.Y 5 ;.-.-.-.p -.-.-.-.-.-.-.-.-.-.-.-.-.-.-.-.-.-.-.-.",
"-.-.-.-.-.-.-.-.-.-.-.-.-.-.-.-.-.-.Y -.-.O.E y 6 z +.-.H -.-.-.-.-.-.-.| b ;.-.-.-.Q T -.-.-.-.-.-.-.-.-.-.-.-.-.-.-.-.-.-.-.-.",
"-.-.-.-.-.-.-.-.-.-.-.-.-.-.-.-.-.-.Y ;.t 0 k ..-.-.-.-.H -.-.-.-.-.-.-.-.-.-.-.-.-.g -.-.-.-.-.-.-.-.-.-.-.-.-.-.-.-.-.-.-.-.-.",
"-.-.-.-.-.-.-.-.-.-.-.-.-.-.-.-.-.-.D ;.I -.-.-.-.-.-.-.N ;.-.-.-.-.-.-.-.-...' -.T l -.-.-.-.-.-.-.-.-.-.-.-.-.-.-.-.-.-.-.-.-.",
"-.-.-.-.-.-.-.-.-.-.-.-.-.-.-.-.-.-.i #.-.-.-.-.-.-.-.-.! =.-.-.-.-.-.Q p 5 y X.o., -.-.-.-.-.-.-.-.-.-.-.-.-.-.-.-.-.-.-.-.-.-.",
"-.-.-.-.-.-.-.-.-.-.-.-.-.-.-.-.-.-.p T -.-.-.-.-.-.-.-.( +.-.-.[ c s k { ;.-.-.9 z -.-.-.-.-.-.-.-.-.-.-.-.-.-.-.-.-.-.-.-.-.-.",
"-.-.-.-.-.-.-.-.-.-.-.-.-.-.-.-.-.-.P y -.-.-.-.-.-.-.-.| ~ M N U %.-.-.-.-.-.! X %.-.-.-.-.-.-.-.-.-.-.-.-.-.-.-.-.-.-.-.-.-.-.",
"-.-.-.-.-.-.-.-.-.-.-.-.-.-.-.-.-.-.} & -.-.-.-.-.-.-.Q u 5 +.-.-.-.-.-.-.-.@.0 Q -.-.-.-.-.-.-.-.-.-.-.-.-.-.-.-.-.-.-.-.-.-.-.",
"-.-.-.-.-.-.-.-.-.-.-.-.-.-.-.-.-.-.=.# ;.-.-.-.-.] - > ,.M -.-.-.-.-.-.-.-.-.-.-.-.-.-.-.-.-.-.-.-.-.-.-.-.-.-.-.-.-.-.-.-.-.-.",
"-.-.-.-.-.-.-.-.-.-.-.-.-.-.-.-.-.-.-.@ 6 -.-.+.4 X l -.=.I -.-.-.-.-.-.-.-.-.-.-.-.-.-.-.-.-.-.-.-.-.-.-.-.-.-.-.-.-.-.-.-.-.-.",
"-.-.-.-.-.-.-.-.-.-.-.-.-.-.-.-.-.-.-.Q T -.z . i %.-.-.:.N ..-.-.-.-.-.-.-.-.-.-.-.-.-.-.-.-.-.-.-.-.-.-.-.-.-.-.-.-.-.-.-.-.-.",
"-.-.-.-.-.-.-.-.-.-.-.-.-.-.-.-.-.-.-.-.-...5 Q -.-.-.-.:.F i 1 +.-.-.-.-.-.-.-.-.-.-.-.-.-.-.-.-.-.-.-.-.-.-.-.-.-.-.-.-.-.-.-.",
"-.-.-.-.-.-.-.-.-.-.-.-.-.-.-.-.-.-.-.-.-.-.-.-.-.-.-.-.:.n -.M $ [ -.-.-.-.-.-.-.-.-.-.-.-.-.-.-.-.-.-.-.-.-.-.-.-.-.-.-.-.-.-.",
"-.-.-.-.-.-.-.-.-.-.-.-.-.-.-.-.-.-.-.-.-.-.-.-.-.-.-.-.:.n -.-./ o [ -.-.-.-.-.-.-.-.-.-.-.-.-.-.-.-.-.-.-.-.-.-.-.-.-.-.-.-.-.",
"-.-.-.-.-.-.-.-.-.-.-.-.-.-.-.-.-.-.-.-.-.-.-.-.-.-.[ O.:.n -.-.-.I # ..-.-.-.-.-.-.-.-.-.-.-.-.-.-.-.-.-.-.-.-.-.-.-.-.-.-.-.-.",
"-.-.-.-.-.-.-.-.-.-.-.-.-.-.-.-.-.-.-.-.-.-.-.-.-.[ , o.:.n -.-.-.-.c * -.-.-.-.-.-.-.-.-.-.-.-.-.-.-.-.-.-.-.-.-.-.-.-.-.-.-.-.",
"-.-.-.-.-.-.-.-.-.-.-.-.-.-.-.-.-.-.-.-.-.-.-.-.-.4 L -.:.n -.-.-.-.-.; f -.-.-.-.-.-.-.-.-.-.-.-.-.-.-.-.-.-.-.-.-.-.-.-.-.-.-.",
"-.-.-.-.-.-.-.-.-.-.-.-.-.-.-.-.-.-.-.-.-.-.-.-...+ ;.-.:.n -.-.-.-.-.o.$ / -.-.-.-.-.-.-.-.-.-.-.-.-.-.-.-.-.-.-.-.-.-.-.-.-.-.",
"-.-.-.-.-.-.-.-.-.-.-.-.-.-.-.-.-.-.-.-.-.-.-.-., I -.-.:.n -.-.-.-.-.-.` # [ -.-.-.-.-.-.-.-.-.-.-.-.-.-.-.-.-.-.-.-.-.-.-.-.-.",
"-.-.-.-.-.-.-.-.-.-.-.-.-.-.-.-.-.-.-.-.-.-.-.c 9 -.-.-.:.F -.-.-.-.-.-.-./ $ P -.-.-.-.-.-.-.-.-.-.-.-.-.-.-.-.-.-.-.-.-.-.-.-.",
"-.-.-.-.-.-.-.-.-.-.-.-.-.-.-.-.-.-.-.-.-.-.E > %.-.-.-.:.F -.-.-.-.-.-.-.-...: 0 %.-.-.-.-.-.-.-.-.-.-.-.-.-.-.-.-.-.-.-.-.-.-.",
"-.-.-.-.-.-.-.-.-.-.-.-.-.-.-.-.-.-.-.-.-.{ < +.-.-.-.-.:.F -.-.-.-.-.-.-.-.-.-.l > ^ -.-.-.-.-.-.-.-.-.-.-.-.-.-.-.-.-.-.-.-.-.",
"-.-.-.-.-.-.-.-.-.-.-.-.-.-.-.-.-.-.-.-.@.i +.-.-.-.-.-.:.F -.-.-.-.-.-.-.-.-.-.-.@.y i %.-.-.-.-.-.-.-.-.-.-.-.-.-.-.-.-.-.-.-.",
"-.-.-.-.-.-.-.-.-.-.-.-.-.-.-.-.-.-.-.@.Z %.-.-.-.-.-.-.:.F -.-.-.-.-.-.-.-.-.-.-.-.-./ t W -.-.-.-.-.-.-.-.-.-.-.-.-.-.-.-.-.-.",
"-.-.-.-.-.-.-.-.-.-.-.-.-.-.-.-.-.-.@.Z %.-.-.-.-.-.-.-.:.m -.-.-.-.-.-.-.-.-.-.-.-.-.-.O.z f %.-.-.-.-.-.-.-.-.-.-.-.-.-.-.-.-.",
"-.-.-.-.-.-.-.-.-.-.-.-.-.-.-.-.-. .c O.-.-.-.-.-.-.-.-.-.Y -.-.-.-.-.-.-.-.-.-.-.-.-.-.-.-.Q u ( -.-.-.-.-.-.-.-.-.-.-.-.-.-.-.",
"-.-.-.-.-.-.-.-.-.-.-.-.-.-.-.-.^ N -.-.-.-.-.-.-.-.-.-.-.H -.-.-.-.-.-.-.-.-.-.-.-.-.-.-.-.-.-.c p +.-.-.-.-.-.-.-.-.-.-.-.-.-.",
"-.-.-.-.-.-.-.-.-.-.-.-.-.-.+.n ^ -.-.-.-.-.-.-.-.-.-.-.-.H -.-.-.-.-.-.-.-.-.-.-.-.-.-.-.-.-.-.-.+.a c @.-.-.-.-.-.-.-.-.-.-.-.",
"-.-.-.-.-.-.-.-.-.-.-.-.[ z n %.-.-.-.-.-.-.-.-.-.-.-.-.-.H -.-.-.-.-.-.-.-.-.-.-.-.-.-.-.-.-.-.-.-.-...f f Q -.-.-.-.-.-.-.-.-.",
"-.-.-.-.-.-.-.-.-...b g c @.-.-.-.-.-.-.-.-.-.-.-.-.-.-.-.H -.-.-.-.-.-.-.-.-.-.-.-.-.-.-.-.-.-.-.-.-.-.-.%.I x c { -.-.-.-.-.-.",
"-.-.-.-.-.-.-.-.-.-.;.-.-.-.-.-.-.-.-.-.-.-.-.-.-.-.-.-.-.F ;.-.-.-.-.-.-.-.-.-.-.-.-.-.-.-.-.-.-.-.-.-.-.-.-.-.&.( Y ) -.-.-.-.",
"-.-.-.-.-.-.-.-.-.-.-.-.-.-.-.-.-.-.-.-.-.-.-.-.-.-.-.-.-.M :.-.-.-.-.-.-.-.-.-.-.-.-.-.-.-.-.-.-.-.-.-.-.-.-.-.-.-.-.-.-.-.-.-.",
"-.-.-.-.-.-.-.-.-.-.-.-.-.-.-.-.-.-.-.-.-.-.-.-.-.-.-.-.-.v <.-.-.-.-.-.-.-.-.-.-.-.-.-.-.-.-.-.-.-.-.-.-.-.-.-.-.-.-.-.-.-.-.-.",
"-.-.-.-.-.-.-.-.-.-.-.-.-.-.-.-.-.-.-.-.-.-.-.-.-.-.-.-.-.c | -.-.-.-.-.-.-.-.-.-.-.-.-.-.-.-.-.-.-.-.-.-.-.-.-.-.-.-.-.-.-.-.-.",
"-.-.-.-.-.-.-.-.-.-.-.-.-.-.-.-.-.-.-.-.-.-.-.-.-.-.-.-.%.g ^ -.-.-.-.-.-.-.-.-.-.-.-.-.-.-.-.-.-.-.-.-.-.-.-.-.-.-.-.-.-.-.-.-.",
"-.-.-.-.-.-.-.-.-.-.-.-.-.-.-.-.-.-.-.-.-.-.-.-.-.-.-.-.#.  I -.-.-.-.-.-.-.-.-.-.-.-.-.-.-.-.-.-.-.-.-.-.-.-.-.-.-.-.-.-.-.-.-.",
"-.-.-.-.-.-.-.-.-.-.-.-.-.-.-.-.-.-.-.-.-.-.-.-.-.-.-.-.-.k { -.-.-.-.-.-.-.-.-.-.-.-.-.-.-.-.-.-.-.-.-.-.-.-.-.-.-.-.-.-.-.-.-.",
"-.-.-.-.-.-.-.-.-.-.-.-.-.-.-.-.-.-.-.-.-.-.-.-.-.-.-.-.-.-.-.-.-.-.-.-.-.-.-.-.-.-.-.-.-.-.-.-.-.-.-.-.-.-.-.-.-.-.-.-.-.-.-.-.",
"-.-.-.-.-.-.-.-.-.-.-.-.-.-.-.-.-.-.-.-.-.-.-.-.-.-.-.-.-.-.-.-.-.-.-.-.-.-.-.-.-.-.-.-.-.-.-.-.-.-.-.-.-.-.-.-.-.-.-.-.-.-.-.-."
};
