/* XPM */
static char *_7d0e9a543ca478fb89b446eaaa8a7db[] = {
/* columns rows colors chars-per-pixel */
"64 64 108 2 ",
"   c #020203",
".  c #04121A",
"X  c #0B1F2D",
"o  c #0D2534",
"O  c #0E2837",
"+  c #0D2939",
"@  c #102735",
"#  c #102837",
"$  c #112B3B",
"%  c #0D2F42",
"&  c #102E40",
"*  c #0D3146",
"=  c #133346",
"-  c #11354A",
";  c #0E3A52",
":  c #113A52",
">  c #113F59",
",  c #213643",
"<  c #13425C",
"1  c #0F4967",
"2  c #134561",
"3  c #134966",
"4  c #1D4A64",
"5  c #124C6A",
"6  c #0E5072",
"7  c #0F5579",
"8  c #0A587E",
"9  c #115172",
"0  c #11577A",
"q  c #145A7E",
"w  c #1F5B7D",
"e  c #205676",
"r  c #0D5E86",
"t  c #125D83",
"y  c #245E80",
"u  c #156087",
"i  c #12638B",
"p  c #1B658D",
"a  c #0F6692",
"s  c #0F6995",
"d  c #0E6D9C",
"f  c #106792",
"g  c #146A96",
"h  c #196993",
"j  c #126D9A",
"k  c #0F709F",
"l  c #14709E",
"z  c #216286",
"x  c #22709C",
"c  c #0E73A4",
"v  c #1474A4",
"b  c #1C76A5",
"n  c #1C77A8",
"m  c #1379AC",
"M  c #1C7AAC",
"N  c #0E7CB2",
"B  c #147EB2",
"V  c #1C7FB3",
"C  c #2277A7",
"Z  c #2875A1",
"A  c #217BAC",
"S  c #0F83BA",
"D  c #1580B6",
"F  c #1C81B5",
"G  c #1484BC",
"H  c #1A87BE",
"J  c #2381B4",
"K  c #2284B9",
"L  c #0F87C1",
"P  c #0B8AC6",
"I  c #0E8ECB",
"U  c #1387C0",
"Y  c #148AC3",
"T  c #1E88C0",
"R  c #128FCB",
"E  c #198FCB",
"W  c #0E90CF",
"Q  c #1391CE",
"!  c #1891CE",
"~  c #0D94D3",
"^  c #0B97D9",
"/  c #0E9ADD",
"(  c #1294D3",
")  c #1D94D0",
"_  c #1598D7",
"`  c #129ADB",
"'  c #208DC5",
"]  c #0B9EE3",
"[  c #129EE1",
"{  c #0DA0E5",
"}  c #06A6EF",
"|  c #0AA2E9",
" . c #0AA3EA",
".. c #09A4EB",
"X. c #0BA7EF",
"o. c #0DA6ED",
"O. c #11A0E4",
"+. c #14A1E5",
"@. c #13A3E8",
"#. c #10A5EB",
"$. c #11A7EE",
"%. c #03A7F1",
"&. c #06A7F1",
"*. c #09A7F0",
"=. c #00A8F3",
"-. c #07A8F2",
";. c #09A8F1",
":. c #0DA8F0",
/* pixels */
"=.=.=.=.=.=.=.=.=.=.=.=.=.=.=.=.=.=.=.=.=.=.=.=.=.=.=.=.=.=.=.=.=.=.=.=.=.=.=.=.=.=.=.=.=.=.=.=.=.=.=.=.=.=.=.=.=.=.=.=.=.=.=.=.",
"=.=.=.=.=.=.=.=.=.=.=.=.=.=.=.=.=.=.=.=.=.=.=.=.=.=.=.=.=.=.=.=.=.=.=.=.=.=.=.=.=.=.=.=.=.=.=.=.=.=.=.=.=.=.=.=.=.=.=.=.=.=.=.=.",
"=.=.=.=.=.=.=.=.=.=.=.=.=.=.=.=.=.=.=.=.=.=.=.=.=.=.=.=.=.=.=.=.=.=.=.=.=.=.=.=.=.=.=.=.=.=.=.=.=.=.=.=.=.=.=.=.=.=.=.=.=.=.=.=.",
"=.=.=.=.=.=.=.=.=.=.=.=.=.=.=.=.=.=.=.=.=.=.=.=.=.=.=.=.=.=.=.=.=.=.=.=.=.=.=.=.=.=.=.=.=.=.=.=.=.=.=.=.=.=.=.=.=.=.=.=.=.=.=.=.",
"=.=.=.=.=.=.=.=.=.=.=.=.=.=.=.=.=.=.=.=.=.=.=.=.=.=.=.=.=.=.=.=.=.=.=.=.=.=.=.=.=.=.=.=.=.=.=.=.=.=.=.=.=.=.=.=.=.=.=.=.=.=.=.=.",
"=.=.=.=.=.=.=.=.=.=.=.=.=.=.=.=.=.=.=.=.=.=.=.=.=.=.=.=.=.=.=.=.=.=.=.=.=.=.=.=.=.=.=.=.=.=.=.=.=.=.=.=.=.=.=.=.=.=.=.=.=.=.=.=.",
"=.=.=.=.=.=.=.=.=.=.=.=.=.=.=.=.=.=.=.=.=.=.=.=.=.=.=.=.=.=.=.] =.=.=.=.=.=.=.=.=.=.=.=.=.=.=.=.=.=.=.=.=.=.=.=.=.=.=.=.=.=.=.=.",
"=.=.=.=.=.=.=.=.=.=.=.=.=.=.=.=.=.=.=.=.=.=.=.=.=.=.=.=.=.=.=.r +.=.=.=.=.=.=.=.=.=.=.=.=.=.=.=.=.=.=.=.=.=.=.=.=.=.=.=.=.=.=.=.",
"=.=.=.=.=.=.=.=.=.=.=.=.=.=.=.=.=.=.=.=.=.=.=.=.=.=.=.=.=.=.=.8 _ =.=.=.=.=.=.=.=.=.=.=.=.=.=.=.=.=.=.=.=.=.=.=.=.=.=.=.=.=.=.=.",
"=.=.=.=.=.=.=.=.=.=.=.=.=.=.=.=.=.=.=.=.=.=.=.=.=.=.=.=.=.=.=.q Y =.=.=.=.=.=.=.=.=.=.=.=.=.=.=.=.=.=.=.=.=.=.=.=.=.=.=.=.=.=.=.",
"=.=.=.=.=.=.=.=.=.=.=.=.=.=.=.=.=.=.=.D =.=.=.=.=.=.=.=.=.=.=.i v =.=.=.=.=.=.=.=.=.=.=.=.=.=.=.=.=.=.=.=.=.=.=.=.=.=.=.=.=.=.=.",
"=.=.=.=.=.=.=.=.=.=.=.=.=.=.=.=.=.=.o.; =.=.=.=.=.=.=.=.=.=.=.j g =.=.=.=.=.=.=.=.=.=.=.=.=.=.=.=.=.=.=.=.=.=.=.=.=.=.=.=.=.=.=.",
"=.=.=.=.=.=.=.=.=.=.=.=.=.=.=.=.=.=.*.% -.=.=.=.=.=.=.=.=.=.=.N u =.=.=.=.=.=.=.=.=.=.=.=.=.=.=.=.=.=.=.=.=.=.=.=.=.=.=.=.=.=.=.",
"=.=.=.=.=.=.=.=.=.=.=.=.=.=.=.=.=.=.-.* &.=.=.=.=.=.=.=.=.=.=.D t =.=.=.=.=.=.=.=.=.=.=.=.=.=.=.=.=.=.=.=.=.=.=.=.=.=.=.=.=.=.=.",
"=.=.=.=.=.=.=.=.=.=.=.=.=.=.=.=.=.=.-.- &.=.=.=.=.=.=.=.=.=.=.P r =.=.=.=.=.=.=.=.=.=.=.=.=.=.=.=.=.=.=.=.=.=.=.=.=.=.=.=.=.=.=.",
"=.=.=.=.=.=.=.=.=.=.=.=.=.=.=.=.=.=.=.2 ;.=.=.=.=.=.=.=.=.=.=.I r =.=.=.=.=.=.=.=.=.=.=.=.] t g ( =.=.=.=.=.=.=.=.=.=.=.=.=.=.=.",
"=.=.=.=.=.=.=.=.=.=.=.=.=.=.=.=.=.=.=.p =.=.=.=.=.=.=.=.=.=.=.I r =.=.=.=.=.=.=.=.=.=.=.=.| ] w : =.=.=.=.=.=.=.=.=.=.=.=.=.=.=.",
"=.=.=.=.=.=.=.=.=.=.=.=.=.=.=.=.=.=.=.C =.=.=.=.=.=.=.=.=.=.=.R r =.=.=.=.=.=.=.=.=.=.=.=.=.G # ^ =.=.=.=.=.=.=.=.=.=.=.=.=.=.=.",
"=.=.=.=.=.=.=.=.=.=.=.=.=.=.=.=.=.=.=.J =.=.=.=.=.=.=.=.=.=.=.R r =.=.=.=.=.=.=.=.=.=.=.=.G + ^ =.=.=.=.=.=.=.=.=.=.=.=.=.=.=.=.",
"=.=.=.=.=.=.=.=.=.=.=.=.=.=.=.=.=.=.=.K =.=.=.=.=.=.=.=.=.=.=.R r =.=.=.=.=.=.=.=.=.=.=.( : ^ =.=.=.=.=.=.=.=.=.=.=.=.=.=.=.=.=.",
"=.=.=.=.=.=.=.=.=.=.=.=.=.=.=.=.=.=.=.J =.=.=.=.=.=.=.=.=.=.=.R r =.=.=.=.=.=.=.=.=.=./ 4 { =.=.=.=.=.=.=.=.=.=.=.=.=.=.=.=.=.=.",
"=.=.=.=.=.=.=.=.=.=.=.=.=.=.=.=.=.=.-.A =.=.=.=.=.=.=.=.=.=.=.R u =.=.=.=.=.=.=.=.=.{ e O.=.=.=.=.=.=.=.=.=.=.=.=.=.=.=.=.=.=.=.",
"=.=.=.=.=.=.=.=.=.=.=.=.=.=.=.=.=.=.X.D =.=.=.=.=.=.=.=.=.=.=.I j =.=.=.=.=.=.=.=...z O.=.=.=.=.=.=.=.=.=.=.=.=.=.=.=.=.=.=.=.=.",
"=.=.=.=.=.=.=.=.=.=.=.=.=.=.=.=.=.=.O.U =.=.=.=.=.=.=.=.=.=.=.G B =.=.=.=.=.=.=.} x @.=.=.=.=.=.=.=.=.=.=.=.=.=.=.=.=.=.=.=.=.=.",
"=.=.=.=.=.=.=.=.=.=.=.=.=.=.=.=.G - E _ =.=.=.=.=.=.=.=.=.=.=.m Q =.=.=.=.=.=.X.n X.=.=.=.=.=.=.=.=.=.=.=.=.=.=.=.=.=.=.=.=.=.=.",
"=.=.=.=.=.=.=.=.=.=.=.=.=.=.} 0 - S G @.=.=.=.=.=.=.=.=.=.=.=.j +.=.=.=.=.=.%.Z | =.=.=.=.=.=.=.=.=.=.=.=.=.=.=.=.=.=.=.=.=.=.=.",
"=.=.=.=.=.=.=.=.=.=.=.=.=.~ > c %.=.F ;.=.=.=.=.=.=.=.=.=.=.=.p :.=.=.=.=.%.M O.=.=.=.=.=.=.=.=.=.=.=.=.=.=.=.=.=.=.=.=.=.=.=.=.",
"=.=.=.=.=.=.=.=.=.=.=.~ 0 9 ] =.=.=.J =.=.=.=.=.=.=.=.=.=.=.=.z -.=.=.=.&.V { =.=.=.=.=.=.=.=.=.=.=.=.=.=.=.=.=.=.=.=.=.=.=.=.=.",
"=.=.=.=.=.=.=.=.} m : 2 ~ =.=.=.=.=.J =.=.=.=.=.=.=.=.=.=.=.-.y =.=.=.-.K | =.=.=.=.=.=.=.=.=.=.=.=.=.=.=.=.=.=.=.=.=.=.=.=.=.=.",
"=.=.=.=.=.=.] s O 1 I =.=.=.=.=.=.=.J =.=.=.=.=.=.=.=.=.=.=.X.u =.=.=.{ ..=.=.=.=.=.=.=.=.=.=.=.=.=.=.=.=.=.=.=.=.=.=.=.=.=.=.=.",
"=.=.=.=.=...X 0 ` =.=.=.=.=.=.=.=.;.V =.=.=.=.=.=.=.=.=.=.=.[ i =.=.=.=.=.=.=.=.=.=.=.=.=.=.=.=.=.=.=.=.=.=.=.=.=.=.=.=.=.=.=.=.",
"=.=.=.=.=.} m =.=.=.=.=.=.=.=.=.=.#.G =.=.=.=.=.=.=.=.=.=.=.Y j =.=.=.=.=.=.=.=.=.=.=.=.=.=.=.=.=.=.=.=.=.=.=.=.=.=.=.=.=.=.=.=.",
"=.=.=.=.=.=.=.=.=.=.=.=.=.=.=.=.=._ R =.=.=.=.=.=.=.=.=.=.=.N v =.=.=.=.=.=.=.=.=.=.=.=.=.=.=.=.=.=.=.=.=.=.=.=.=.=.=.=.=.=.=.=.",
"=.=.=.=.=.=.=.=.=.=.=.=.=.=.=.=.=.Y [ =.=.=.=.=.=.=.=.=.=.=.c b =.=.=.=.=.=.=.=.=.=.=.=.=.=.=.=.=.=.=.=.=.=.=.=.=.=.=.=.=.=.=.=.",
"=.=.=.=.=.=.=.=.=.=.=.=.=.=.=.=.=.D o.=.=.=.=.=.=.=.=.=.=.=.j b =.=.=.=.=.=.=.=.=.=.=.=.=.=.=.=.=.=.=.=.=.=.=.=.=.=.=.=.=.=.=.=.",
"=.=.=.=.=.=.=.=.=.=.=.=.=.=.=.=.=.F -.=.=.=.=.=.=.=.=.=.=.=.j v =.=.=.=.=.=.=.=.=.=.=.=.=.=.=.=.=.=.=.=.=.=.=.=.=.=.=.=.=.=.=.=.",
"=.=.=.=.=.=.=.=.=.=.=.=.=.=.=.=.=.J =.=.=.=.=.=.=.=.=.=.=.=.l s =.=.=.=.=.=.=.=.=.=.=.=.=.=.=.=.=.=.=.=.=.=.=.=.) =.=.=.=.=.=.=.",
"=.=.=.=.=.=.=.=.=.=.=.=.=.=.=.=.=.J =.=.=.=.=.=.=.=.=.=.=.=.G 5 =.=.=.=.=.=.=.=.=.=.=.=.=.=.=.=.=.=.=.=.=.=.=.=.' =.=.=.=.=.=.=.",
"=.=.=.=.=.=.=.=.=.=.=.=.=.=.=.=.=.J =.=.=.=.=.=.=.=.=.=.=.=.{ & -.=.=.=.=.=.=.=.=.=.=.=.=.=.=.=.=.=.=.=.=.=.=.=.T =.=.=.=.=.=.=.",
"=.=.=.=.=.=.=.=.=.=.=.=.=.=.=.=.-.M =.=.=.=.=.=.=.=.&.! =.=.-.$ [ =.=.=.=.=.=.=.=.=.=.=.=.=.=.=.=.=.=.=.=.=.=.=.R { =.=.=.=.=.=.",
"=.=.=.=.=.=.=.=.=.=.=.=.=.=.=.=.o.v =.=.=.=.=.=.=.| J } =.=.=.9 m =.=.=.=.=.=.=.=.=.=.=.=.=.=.=.=.=.=.=.=.=.=.=.O.Y =.=.=.=.=.=.",
"=.=.=.=.=.=.=.=.=.=.=.=.=.=.=.=./ c =.=.=.=.=.=.] J %.=.=.=.=.m 7 =.=.=.=.=.=.=.=.=.=.=.=.=.=.=.=.=.=.=.=.=.=.=.-.J =.=.=.=.=.=.",
"=.=.=.=.=.=.=.=.=.=.=.=.=.=.=.=.R d =.=.=.=.=.( F =.=.=.=.=.=./ * =.=.=.=.=.=.=.=.=.=.=.=.=.=.=.=.=.=.=.=.=.=.=.=.J =.=.=.=.=.=.",
"=.=.=.=.=.=.=.=.=.=.=.=.=.=.=.=.D i =.=.=.=.Y H =.=.=.=.=.=.=.=.* ] =.=.=.=.=.=.=.=.=.=.=.=.=.=.=.=.=.=.=.=.=.=.=.J =.=.=.=.=.=.",
"=.=.=.=.=.=.=.=.=.=.=.=.=.=.=.=.N 6 =.=.=.H R =.=.=.=.=.=.=.=.=.t k =.=.=.=.=.=.=.=.=.=.=.=.=.=.=.=.=.=.=.=.=.=.=.J -.=.=.=.=.=.",
"=.=.=.=.=.=.=.=.=.=.=.=.=.=.=.=.Y o -.=.D ~ =.=.=.=.=.=.=.=.=.=.Q % &.=.=.=.=.=.=.=.=.=.=.=.=.=.=.=.=.=.=.=.=.=.=.D $.=.=.=.=.=.",
"=.=.=.=.=.=.=.=.=.=.=.=.=.=.=.=.P v &.M / =.=.=.=.=.=.=.=.=.=.=.=.2 g =.=.=.=.=.=.=.=.=.=.=.=.=.=.=.=.=.=.=.=.=.=.U [ =.=.=.=.=.",
"=.=.=.=.=.=.=.=.=.=.=.=.=.=.=.=.=.X.n { =.=.=.=.=.=.=.=.=.=.=.=.=.] + U =.=.=.=.=.=.=.=.=.=.=.=.=.=.=.=.=.=.=.=.=.~ ( =.=.=.=.=.",
"=.=.=.=.=.=.=.=.=.=.=.=.=.=.=.=.| n X.=.=.=.=.=.=.=.=.=.=.=.=.=.=.=.~ + Y =.=.=.=.=.=.=.=.=.=.=.=.=.=.=.=.=.=.=.=.( L =.=.=.=.=.",
"=.=.=.=.=.=.=.=.=.=.=.=.=.=.=./ C &.=.=.=.=.=.=.=.=.=.=.=.=.=.=.=.=.=.~ # B =.=.=.=.=.=.=.=.=.=.=.=.=.=.=.=.=.=.=.W c =.=.=.=.=.",
"=.=.=.=.=.=.=.=.=.=.=.=.=.=.~ F =.=.=.=.=.=.=.=.=.=.=.=.=.=.=.=.=.=.=.=./ : 5 ] =.=.=.=.=.=.=.=.=.=.=.=.=.=.=.=.=.Y 0 =.=.=.=.=.",
"=.=.=.=.=.=.=.=.=.=.=.=.=.Y H =.=.=.=.=.=.=.=.=.=.=.=.=.=.=.=.=.=.=.=.=.=.&.j + d } =.=.=.=.=.=.=.=.=.=.=.=.=.=.=.Y > =.=.=.=.=.",
"=.=.=.=.=.=.=.=.=.=.=.} h Y =.=.=.=.=.=.=.=.=.=.=.=.=.=.=.=.=.=.=.=.=.=.=.=.=.] 5 @ a ] =.=.=.=.=.=.=.=.=.=.=.=.=.~ o =.=.=.=.=.",
"=.=.=.=.=.=.=.=.=.=.~ 5 W =.=.=.=.=.=.=.=.=.=.=.=.=.=.=.=.=.=.=.=.=.=.=.=.=.=.=.=./ t + : f Y [ o.;.=.=.=.=.=.=.=.{ . O.=.=.=.=.",
"=.=.=.=.=.=.=.=.&.j 3 { =.=.=.=.=.=.=.=.=.=.=.=.=.=.=.=.=.=.=.=.=.=.=.=.=.=.=.=.=.=.=.&.~ j 6 : % + = 2 t v R @.;.=.= q =.=.=.=.",
"=.=.=.=.~ } =.I ; i &.=.=.=.=.=.=.=.=.=.=.=.=.=.=.=.=.=.=.=.=.=.=.=.=.=.=.=.=.=.=.=.=.=.=.=.=.=.-.:.O.Q m t < # o - +   B =.=.=.",
"=.=.} t l ` 9 ; W =.=.=.=.=.=.=.=.=.=.=.=.=.=.=.=.=.=.=.=.=.=.=.=.=.=.=.=.=.=.=.=.=.=.=.=.=.=.=.=.=.=.=.=.=.=.-.#.^ D n | =.=.=.",
"=.=.c , 3 < S =.=.=.=.=.=.=.=.=.=.=.=.=.=.=.=.=.=.=.=.=.=.=.=.=.=.=.=.=.=.=.=.=.=.=.=.=.=.=.=.=.=.=.=.=.=.=.=.=.=.=.=.=.=.=.=.=.",
"=.=.] G / =.=.=.=.=.=.=.=.=.=.=.=.=.=.=.=.=.=.=.=.=.=.=.=.=.=.=.=.=.=.=.=.=.=.=.=.=.=.=.=.=.=.=.=.=.=.=.=.=.=.=.=.=.=.=.=.=.=.=.",
"=.=.=.=.=.=.=.=.=.=.=.=.=.=.=.=.=.=.=.=.=.=.=.=.=.=.=.=.=.=.=.=.=.=.=.=.=.=.=.=.=.=.=.=.=.=.=.=.=.=.=.=.=.=.=.=.=.=.=.=.=.=.=.=.",
"=.=.=.=.=.=.=.=.=.=.=.=.=.=.=.=.=.=.=.=.=.=.=.=.=.=.=.=.=.=.=.=.=.=.=.=.=.=.=.=.=.=.=.=.=.=.=.=.=.=.=.=.=.=.=.=.=.=.=.=.=.=.=.=.",
"=.=.=.=.=.=.=.=.=.=.=.=.=.=.=.=.=.=.=.=.=.=.=.=.=.=.=.=.=.=.=.=.=.=.=.=.=.=.=.=.=.=.=.=.=.=.=.=.=.=.=.=.=.=.=.=.=.=.=.=.=.=.=.=.",
"=.=.=.=.=.=.=.=.=.=.=.=.=.=.=.=.=.=.=.=.=.=.=.=.=.=.=.=.=.=.=.=.=.=.=.=.=.=.=.=.=.=.=.=.=.=.=.=.=.=.=.=.=.=.=.=.=.=.=.=.=.=.=.=.",
"=.=.=.=.=.=.=.=.=.=.=.=.=.=.=.=.=.=.=.=.=.=.=.=.=.=.=.=.=.=.=.=.=.=.=.=.=.=.=.=.=.=.=.=.=.=.=.=.=.=.=.=.=.=.=.=.=.=.=.=.=.=.=.=."
};
