/* XPM */
static char *_3591147a03547da8db012008e46bc21[] = {
/* columns rows colors chars-per-pixel */
"64 64 72 1 ",
"  c #3D1C1D",
". c #441F20",
"X c #572729",
"o c #5C2729",
"O c #56292B",
"+ c #622F30",
"@ c #6B3233",
"# c #773536",
"$ c #7A3437",
"% c #753638",
"& c #7D3739",
"* c #773A3B",
"= c #7D3A3C",
"- c #833A3C",
"; c #833F41",
": c #8D3E41",
"> c #923F42",
", c #8D4042",
"< c #954244",
"1 c #9C4346",
"2 c #924748",
"3 c #994548",
"4 c #97494B",
"5 c #99484A",
"6 c #A14447",
"7 c #A2464A",
"8 c #A8474B",
"9 c #A34A4C",
"0 c #AC4B4E",
"q c #B14C4F",
"w c #A74E50",
"e c #AC4E51",
"r c #B44E51",
"t c #BB4E52",
"y c #AF5254",
"u c #B55154",
"i c #BC5255",
"p c #BE5659",
"a c #C35256",
"s c #C85257",
"d c #C45659",
"f c #CB565A",
"g c #C5595C",
"h c #CC595D",
"j c #D3595D",
"k c #D95A5F",
"l c #D75C60",
"z c #D75C61",
"x c #D85F63",
"c c #DF5D62",
"v c #E15D62",
"b c #E45F63",
"n c #E75F64",
"m c #E85F64",
"M c #E16165",
"N c #E66166",
"B c #E86166",
"V c #EC6166",
"C c #E76468",
"Z c #E96368",
"A c #EF6369",
"S c #E86469",
"D c #EB6469",
"F c #F06368",
"G c #F36469",
"H c #F0676B",
"J c #F3666B",
"K c #F6656B",
"L c #FA656B",
"P c #F9666C",
"I c #F7696E",
"U c #FA686E",
/* pixels */
"LLLLLLLLLLLLLLLLLLLLLLLLLLLLLLLLLLLLLLLLLLLLLLLLLLLLLLLLLLLLLLLL",
"LLLLLLLLLLLLLLLLLLLLLLLLLLLLLLLLLLLLLLLLLLLLLLLLLLLLLLLLLLLLLLLL",
"LLLLLLLLLLLLLLLLLLLLLLLLLLLLLLLLLLLLLLLLLLLLLLLLLLLLLLLLLLLLLLLL",
"LLLLLLLLLLLLLLLLLLLLLLLLLLLLLLLLLLLLLLLLLLLLLLLLLLLLLLLLLLLLLLLL",
"LLLLLLLLLLLLLLLLLLLLLLLLLLLLLLvALLLLLLLLLLLLLLLLLLLLLLLLLLLLLLLL",
"LLLLLLLLLLLLLLLLLLLLLLLLLLLLLLr,jLLLLLLLLLLLLLLLLLLLLLLLLLLLLLLL",
"LLLLLLLLLLLLLLLLLLLLLLLLLLLLLLLiiLLLLKcr<0LLLLLLLLLLLLLLLLLLLLLL",
"LLLLLLLLLLLLLLLLLLLLLLLLLLLLLLL<MAfue39ak>KLLLLLLLLLLLLLLLLLLLLL",
"LLLLLLLLLLLLLLLLLLLLLLLLLLLNa7e+uhSPLLLLLLLLLLLLLLLLLLLLLLLLLLLL",
"LLLLLLLLLLLLLLLLLLLLLLL7x-+&rZL2LLLLLLLLLLLLLLLLLLLLLLLLLLLLLLLL",
"LLLLLLLLLLLLLLLLLLLLLLLj lLLLLLwLLLLLLLLLLLLLLLLLLLLLLLLLLLLLLLL",
"LLLLLLLLLLLLLLLLLLLLLLLLLLLLLLLyLLLLLLLLLLLLLLLLLLLLLLLLLLLLLLLL",
"LLLLLLLLLLLLLLLLLLLLLLLLLLLLLLPuLLLLLLLLLLLLLLLLLLLLLLLLLLLLLLLL",
"LLLLLLLLLLLLLLLLLLLLLLLLLLLLLLIuLLLLLLLLLLLLLPUPLLLLLLLLLLLLLLLL",
"LLLLLLLLLLLLLLLLLLLLLLLLLLLLLLIdLLLLLLLGhrw94;==*@&LLLLLLLLLLLLL",
"LLLLLLLLLLLLLLLLLLLLLLLLLLLLLLIgLLLKjdffZPLLLLLLL0dLLLLLLLLLLLLL",
"LLLLLLLLLLLLLLLLLLLLLLLLLLLLLLLNGhddBLLLLLLLLLLLL3hLLLLLLLLLLLLL",
"LLLLLLLLLLLLLLLLLLLLLLLLLLLLLBddjGLLLqjLLLLLLLLLL3hLLLLLLLLLLLLL",
"LLLLLLLLLLLLbrALLLLLLLLLLLkuujKLLLLLG-LLLLLLLLLLL7lLLLLLLLLLLLLL",
"LLLLLLLLLLLLk<kLLLLLLLGi90kPLLLLLLLL7BLLLLLLLLLLLrvLLLLLLLLLLLLL",
"LLLLLLLLLLLLL-SLLLLKs<<kLLLLLLLLLLLktLLLLLLLLLLLLdlLLLLLLLLLLLLL",
"LLLLLLLLLLLLL-GLLL<<sLLLLLBLLLLLLLG:LLLLLLLLLLLLLxhLLLLLLLLLLLLL",
"LLLLLLLLLLLLL-ILLLFGLLLLLL=LLLLLLL1NLLLLLLLLLLLLLZdLLLLLLLLLLLLL",
"LLLLLLLLLLLLL:ULLLLLLLLLLL1NLLLLL0jLLLLLLLLLLLLLLGaLLLLLLLLLLLLL",
"LLLLLLLLLLLLL<PLLLLLLLLLLLB>LLLLiaLLLLLLLLLLLLLLLPpLLLLLLLLLLLLL",
"LLLLLLLLLLLLL5ULLLLLLLLLLLL>vLLGuLLF8=<LLLLLLLLLLLpLLLLLLLLLLLLL",
"LLLLLLLLLLLLLePLLLLLLLLLLLLF=vLLLx:-fG=LLLLLLLLLLLdLLLLLLLLLLLLL",
"LLLLLLLLLLLLLpLLLLLLLLLLLLLLFaKi,1VLL<kLLLLLLLLLLLfLLLLLLLLLLLLL",
"LLLLLLLLLLLLLgLLLLLLLLLLLLLLV<>hLLLL0aLLLLLLLLLLLLgLLLLLLLLLLLLL",
"LLLLLLLLLLLLLgLLLLLLLLLLLLF>-canLLLisLLLLLLLLLLLLLdPLLLLLLLLLLLL",
"LLLLLLLLLLLLLhLLLLLLLLLLL>#kLL@ZLLdkLLLLLLLLLLLLLLfPLLLLLLLLLLLL",
"LLLLLLLLLLLLLgULLLLLLLLLLBLLLL1sLdkLLLLLLLLLLLLLLLdGLLLLLLLLLLLL",
"LLLLLLLLLLLLLgULLLLLLLLLLLLLLLd1hlLLLLLLLLLLLLLLLLgGLLLLLLLLLLLL",
"LLLLLLLLLLLLLhPLLLLLLLLLLLLLLLS@kLLLLLLLLLLLLLLLLLgGLLLLLLLLLLLL",
"LLLLLLLLLLLLLfILLLLLLLLLLLLLLLM-LLLLLLLLLLLLLLLLLLgILLLLLLLLLLLL",
"LLLLLLLLLLLLLgILLLLLLLLLLLLLLBg9LLc>rLLLLLLLLLLLLLhILLLLLLLLLLLL",
"LLLLLLLLLLLLLjGLLLLLLLLLLLLLGpLym<6ALLLLLLLLLLLLLLhPLLLLLLLLLLLL",
"LLLLLLLLLLLLLjSLLLLLLLLLLLLKuLV@1FLLLLLLLLLLLLLLLLhLLLLLLLLLLLLL",
"LLLLLLLLLLLLLxNLLLLLLLLLLLG0Z1=wPLLLLLLLLLLLLLLLLLhLLLLLLLLLLLLL",
"LLLLLLLLLLLLLNnLLLLLLLLLLV;<%jLdULLLLLLLLLLLLLLLLLgLLLLLLLLLLLLL",
"LLLLLLLLLLLLLClLLLLLLLLLc OfLLLhGLLLLLLLLLLLLLLLLLgLLLLLLLLLLLLL",
"LLLLLLLLLLLLLGxLLLLLLLLL-sLLLLLcNLLLLLLLLLLLLLLLLKfLLLLLLLLLLLLL",
"LLLLLLLLLLLLLGkLLLLLLLLLLLLLLLLNlLLLLLLLLLLLLLLLLxNLLLLLLLLLLLLL",
"LLLLLLLLLLLLLIjLLLLLLLLLLLLLLLLSdLLLLLLLLLLLLLLLLdPLLLLLLLLLLLLL",
"LLLLLLLLLLLLLIhLLLLLLLLLLLLLLLLGpLLLLLLLLLLLLLLLLgLLLLLLLLLLLLLL",
"LLLLLLLLLLLLLPjLLLLLLLLLLLLLLLLKdLLLLLLLLLLLLLLLPdLLLLLLLLLLLLLL",
"LLLLLLLLLLLLLPjLLLLLLLLLLLLLLLLKdLLLLLLLLLLLLLLLNkLLLLLLLLLLLLLL",
"LLLLLLLLLLLLLPjLLLLLLLLLLLLLLLLGhLLLLLLLLLLLLLLLhKLLLLLLLLLLLLLL",
"LLLLLLLLLLLLLPgLLLLLLLLLLLLLLLLSBLLLLLLLLLLLLLLLpLLLLLLLLLLLLLLL",
"LLLLLLLLLLLLLPdLLLLLLLLLLLLLLLLLLLLLLLLLLLLLLLLLuLLLLLLLLLLLLLLL",
"LLLLLLLLLLLLLLpLLLLLLLLLLLLLLLLLLLLLLLLLLLLLLLLA0LLLLLLLLLLLLLLL",
"LLLLLLLLLLLLLLuLLLLLLLLLLLLLLLLLLLLLLLLLLLLLLLLtjLLLLLLLLLLLLLLL",
"LLLLLLLLLLLLLLuLLLLLLLLLLLLLLLLLLLLLLLLLLLLLLLL:KLLLLLLLLLLLLLLL",
"LLLLLLLLLLLLLL9KLLLLLLLLLLLLLLLLLLLLLLLLLLLLLLK-LLLLLLLLLLLLLLLL",
"LLLLLLLLLLLLLL7@PLLLLLLLLLLLLLLLLLLLLLLLLLLLLLttLLLLLLLLLLLLLLLL",
"LLLLLLLLLLLLLLVfLLLLLLLLLLLLLLLLLLLLLLLLLLLLLL$KLLLLLLLLLLLLLLLL",
"LLLLLLLLLLLLLLLLLLLLLLLLLLLLLLLLLLLLLLLLLLdLLa7LLLLLLLLLLLLLLLLL",
"LLLLLLLLLLLLLLLLLLLLLLLLLLLLLLLLLLLLLLLLLL6iBoKLLLLLLLLLLLLLLLLL",
"LLLLLLLLLLLLLLLLLLLLLLLLLLLLLLLLLLLLLLLLLLKX.fLLLLLLLLLLLLLLLLLL",
"LLLLLLLLLLLLLLLLLLLLLLLLLLLLLLLLLLLLLLLLLLLLGLLLLLLLLLLLLLLLLLLL",
"LLLLLLLLLLLLLLLLLLLLLLLLLLLLLLLLLLLLLLLLLLLLLLLLLLLLLLLLLLLLLLLL",
"LLLLLLLLLLLLLLLLLLLLLLLLLLLLLLLLLLLLLLLLLLLLLLLLLLLLLLLLLLLLLLLL",
"LLLLLLLLLLLLLLLLLLLLLLLLLLLLLLLLLLLLLLLLLLLLLLLLLLLLLLLLLLLLLLLL",
"LLLLLLLLLLLLLLLLLLLLLLLLLLLLLLLLLLLLLLLLLLLLLLLLLLLLLLLLLLLLLLLL"
};
