/* XPM */
static char *_1c4d66d525c457da4d41d67921eafa6[] = {
/* columns rows colors chars-per-pixel */
"64 64 95 2 ",
"   c #010A03",
".  c #070909",
"X  c #09210E",
"o  c #0F3A18",
"O  c #123518",
"+  c #133D1B",
"@  c #1B3C1F",
"#  c #0F4B1C",
"$  c #14441D",
"%  c #13491E",
"&  c #11501F",
"*  c #174C21",
"=  c #165322",
"-  c #1A5325",
";  c #145C25",
":  c #1A5826",
">  c #1A5F29",
",  c #245B2D",
"<  c #2C5E33",
"1  c #156226",
"2  c #176629",
"3  c #1D652C",
"4  c #166B2A",
"5  c #1A6D2C",
"6  c #15732B",
"7  c #1A722E",
"8  c #157C2E",
"9  c #18792F",
"0  c #1E7230",
"q  c #177E30",
"w  c #1B7D32",
"e  c #22662F",
"r  c #246E32",
"t  c #237433",
"y  c #247C35",
"u  c #158531",
"i  c #1C8333",
"p  c #1B8B35",
"a  c #1F8D39",
"s  c #179436",
"d  c #1A9137",
"f  c #1C9539",
"g  c #169F39",
"h  c #1B9B3A",
"j  c #218436",
"k  c #248538",
"l  c #2B803A",
"z  c #248C3A",
"x  c #2B8B3E",
"c  c #22933B",
"v  c #239B3E",
"b  c #16A23A",
"n  c #1CA43D",
"m  c #16AC3D",
"M  c #1AAB3E",
"N  c #17B33F",
"B  c #19B03F",
"V  c #318240",
"C  c #2B9440",
"Z  c #279C40",
"A  c #2A9D42",
"S  c #1BAD40",
"D  c #17B240",
"F  c #1AB442",
"G  c #16BC42",
"H  c #1ABC44",
"J  c #21A340",
"K  c #24A040",
"L  c #20A740",
"P  c #21AC43",
"I  c #24B147",
"U  c #16C143",
"Y  c #16C545",
"T  c #19C245",
"R  c #1AC446",
"E  c #15CA46",
"W  c #11CF46",
"Q  c #14CC46",
"!  c #15CF47",
"~  c #18CA47",
"^  c #1EC348",
"/  c #1CC448",
"(  c #17CC48",
")  c #1BC848",
"_  c #1ACB49",
"`  c #18CE49",
"'  c #1CCE4B",
"]  c #1ECF4C",
"[  c #0ED145",
"{  c #11D146",
"}  c #14D047",
"|  c #13D148",
" . c #15D048",
".. c #19D04A",
"X. c #20C048",
/* pixels */
"[ [ [ [ [ [ [ [ [ [ [ [ [ [ [ [ [ [ [ [ [ [ [ [ [ [ [ [ [ [ [ [ [ [ [ [ [ [ [ [ [ [ [ [ [ [ [ [ [ [ [ [ [ [ [ [ [ [ [ [ [ [ [ [ ",
"[ [ [ [ [ [ [ [ [ [ [ [ [ [ [ [ [ [ [ [ [ [ [ [ [ [ [ [ [ [ [ [ [ [ [ [ [ [ [ [ [ [ [ [ [ [ [ [ [ [ [ [ [ [ [ [ [ [ [ [ [ [ [ [ ",
"[ [ [ [ [ [ [ [ [ [ [ [ [ [ [ [ [ [ [ [ [ [ [ [ [ [ [ [ [ [ [ [ [ [ [ [ [ [ [ [ [ [ [ [ [ [ [ [ [ [ [ [ [ [ [ [ [ [ [ [ [ [ [ [ ",
"[ [ [ [ [ [ [ [ [ [ [ [ [ [ [ [ [ [ [ [ [ [ [ [ [ [ [ [ [ [ [ [ [ [ [ [ [ [ [ [ [ [ [ [ [ [ [ [ [ [ [ [ [ [ [ [ [ [ [ [ [ [ [ [ ",
"[ [ [ [ [ [ [ [ [ [ [ [ [ [ [ [ [ [ [ [ [ [ [ [ [ [ [ [ [ [ [ [ [ [ [ [ [ [ [ [ [ [ [ [ [ [ [ [ [ [ [ [ [ [ [ [ [ [ [ [ [ [ [ [ ",
"[ [ [ [ [ [ [ [ [ [ [ [ [ [ [ [ [ [ [ [ [ [ [ [ [ [ [ [ [ [ [ [ [ [ [ [ [ [ [ [ [ [ [ [ [ [ [ [ [ [ [ [ [ [ [ [ [ [ [ [ [ [ [ [ ",
"[ [ [ [ [ [ [ [ [ [ [ [ [ [ [ [ [ [ [ [ [ [ [ [ [ [ [ [ [ [ [ [ [ [ [ [ [ [ [ [ [ [ [ [ [ [ [ [ [ [ [ [ [ [ [ [ [ [ [ [ [ [ [ [ ",
"[ [ [ [ [ [ [ [ [ [ [ [ [ [ [ [ [ [ [ [ [ [ [ [ [ [ [ [ [ [ [ [ [ [ [ [ [ [ [ [ [ [ [ [ [ [ [ [ [ [ [ [ [ [ [ [ [ [ [ [ [ [ [ [ ",
"[ [ [ [ [ [ [ [ [ [ [ [ [ [ [ [ [ [ [ [ [ [ [ [ [ [ [ [ [ [ [ [ [ [ [ [ [ [ [ [ [ [ [ [ [ [ [ [ [ [ [ [ [ [ [ [ [ [ [ [ [ [ [ [ ",
"[ [ [ [ [ [ [ [ [ [ [ [ [ [ [ [ [ [ [ [ [ [ [ [ [ [ [ [ [ [ [ [ [ [ [ [ [ [ [ [ [ [ [ [ [ [ [ [ [ [ [ [ [ [ [ [ [ [ [ [ [ [ [ [ ",
"[ [ [ [ [ [ [ [ [ [ [ [ [ [ [ [ [ [ [ [ [ [ [ [ [ [ [ [ [ [ [ [ [ [ ! T M h p i t 5 3 , , , , z [ [ [ [ [ [ [ [ [ [ [ [ [ [ [ [ ",
"[ [ [ [ [ [ [ [ [ [ [ [ [ [ [ [ [ [ [ [ [ [ [ [ [ [ [ [ } / n c C v h n F X.] .. . . . . . . .{ [ [ [ [ [ [ [ [ [ [ [ [ [ [ [ [ ",
"[ [ [ [ [ [ [ [ [ [ [ [ [ [ [ [ m M } G g p q 7 4 9 l z c h G ` [ [ H $ ~ [ [ [ [ [ [ [ [ [ [ [ [ [ [ [ [ [ [ [ [ [ [ [ [ [ [ [ ",
"[ [ [ [ [ [ [ [ [ [ [ [ [ [ [ [ W : % 1 u f n F ^ ` { [ [ [ [ [ [ [ S 7 [ [ [ [ [ [ [ [ [ [ [ [ [ [ [ [ [ [ [ [ [ [ [ [ [ [ [ [ ",
"[ [ [ [ [ [ [ [ [ [ [ [ [ [ [ [ [ ! { [ [ [ [ [ { N [ [ [ [ [ [ [ [ h u [ [ [ [ [ [ [ [ [ [ [ [ [ [ [ [ [ [ [ [ [ [ [ [ [ [ [ [ ",
"[ [ [ [ [ [ [ [ [ [ [ [ [ [ [ [ [ [ [ [ [ [ [ [ { :  .[ [ [ [ [ [ [ p f [ [ [ [ [ [ [ [ [ [ [ [ [ [ [ [ [ [ [ [ [ [ [ [ [ [ [ [ ",
"[ [ [ [ [ [ [ [ [ [ [ [ [ [ [ [ [ [ [ [ [ [ [ [ [ 4 / [ [ [ [ [ [ [ i M [ [ [ [ [ [ [ [ [ [ [ [ [ [ [ [ [ [ [ [ [ [ [ [ [ [ [ [ ",
"[ [ [ [ [ [ [ [ [ [ [ [ [ [ [ [ [ [ [ [ [ [ [ [ [ 8 U [ [ [ [ [ [ [ 6 H [ [ [ [ [ [ [ [ [ [ [ [ [ [ [ [ [ [ [ [ [ [ [ [ [ [ [ [ ",
"[ [ [ [ [ [ [ [ [ [ [ [ [ [ [ [ [ [ [ [ [ [ [ [ [ 8 U [ [ [ [ [ [ [ 3 _ [ [ [ [ [ [ [ [ [ [ [ [ [ [ [ [ [ [ [ [ [ [ [ [ [ [ [ [ ",
"[ [ [ [ [ [ [ [ [ [ [ [ [ [ [ [ [ [ [ [ [ [ [ [ [ 8 R [ [ [ [ [ [ [ 4 ` [ [ [ [ { ........| [ [ [ [ [ [ [ [ [ [ [ [ [ [ [ [ [ [ ",
"[ [ [ [ [ [ [ [ [ [ [ [ [ [ [ [ [ [ [ [ [ [ [ [ [ 9 ! [ [ [ [ [ { R : K Z A Z A n v v v x z c x x V k i t < < - : 7 b W [ [ [ [ ",
"[ [ [ [ [ [ [ [ [ [ [ [ [ [ [ [ [ [ [ [ [ [ [ [ [ r { [ ` G n v v L ,  .[ [ [ [ [ [ [ [ [ [ [ [ [ [ [ [ [ { { ] H h 1 o M [ [ [ ",
"[ [ [ [ [ [ [ [ [ [ [ [ [ [ [ [ [ [ [ [ [ [ [ [ ' , f c h G { [ [ { r [ [ [ [ [ [ [ [ [ [ [ [ [ [ [ [ [ [ [ [ [ [ [ [ G O M [ [ ",
"[ [ G T ! { [ [ [ [ [ [ [ [ [ [ [ [ [ [  .U g c y i ( [ [ [ [ [ [ { w [ [ [ [ [ [ [ [ [ [ [ [ [ [ [ [ [ [ [ [ [ [ [ [ [ X.% [ [ ",
"[ [ h 2 2 = { [ [ [ [ [ [ [ [ [ ` S d x c M _ [ g T [ [ [ [ [ [ [ { j [ [ [ [ [ [ [ [ [ [ [ [ [ [ [ [ [ [ [ [ [ [ [ [ [ F = [ [ ",
"[ [ [ [ [ ; F [ [ [ [ [ W M 8 7 w M _ [ [ [ [ [ v { [ [ [ [ [ [ [ { z [ [ [ [ [ [ [ [ [ [ [ [ [ [ [ [ [ [ [ [ [ [ [ [ [ 2 s [ [ ",
"[ [ [ [ [ b 9 [ [ ! h 1 ; u H { [ [ [ [ [ [ [ { v [ [ [ [ [ [ [ [ { d [ [ [ [ [ [ [ [ [ [ [ [ [ [ [ [ [ [ [ [ [ [ [ [ { + ~ [ [ ",
"[ [ [ [ [ ! > N 4 - u T [ [ [ [ [ [ [ [ [ [ [ H N [ [ [ [ [ [ [ [ ..i [ [ [ [ [ [ [ [ [ [ [ [ [ [ [ [ [ [ [ [ [ [ [ [ F & [ [ [ ",
"[ [ [ [ [ E O : F { [ [ [ [ [ [ [ [ [ [ [ [ [ n { [ [ [ [ [ [ [ [ ..t [ [ [ [ [ [ [ [ [ [ [ [ [ [ [ [ [ [ [ [ [ [ [ [ u u [ [ [ ",
"[ [ [ [ [ [ n H [ [ [ [ [ [ [ [ [ [ [ [ [ [ [ v [ [ [ [ [ [ [ [ [ ` 0 [ [ [ [ [ [ [ [ [ [ [ [ [ [ [ [ [ [ [ [ [ [ [ [ ; G [ [ [ ",
"[ [ [ [ [ [ _ g [ [ [ [ [ [ [ [ [ [ [ [ [ [ G S [ [ [ [ [ [ [ [ [ ` 5 [ [ [ [ [ [ [ [ [ [ [ [ [ [ [ [ [ [ [ [ [ [ [ { - } [ [ [ ",
"[ [ [ [ [ [ [ Z [ [ [ [ [ [ [ [ [ [ [ [ [ [ h { [ [ [ [ [ [ [ [ [ { 5 [ [ [ [ [ [ [ [ [ [ [ [ [ [ [ [ [ [ [ [ [ [ [ _ 2 [ [ [ [ ",
"[ [ [ [ [ [ [ v { [ [ [ [ [ [ [ [ [ [ [ [ Y g [ [ [ [ [ [ [ [ [ [ [ 3 { [ [ [ [ [ [ [ [ [ [ [ [ [ [ [ [ [ [ [ [ [ [ M d [ [ [ [ ",
"[ [ [ [ [ [ [ M R [ [ [ [ [ [ [ [ [ [ [ [ f E [ [ [ [ [ [ [ [ [ [ [ 6 G [ [ [ [ [ [ [ [ [ [ [ [ [ [ [ [ [ [ [ [ [ [ i T [ [ [ [ ",
"[ [ [ [ [ [ [ _ n [ [ [ [ [ [ [ [ [ [ [ Y p [ [ [ [ [ [ [ [ [ [ [ [ g 6 [ [ [ [ [ [ [ [ [ [ [ [ [ [ [ [ [ [ [ [ [ [ y { [ [ [ [ ",
"[ [ [ [ [ [ [ [ Z [ [ [ [ [ [ [ [ [ [ [ p E [ [ [ [ [ [ [ [ [ [ [ [ ! + Y [ [ [ [ [ [ [ [ [ [ [ [ [ [ [ [ [ [ [ [ { f [ [ [ [ [ ",
"[ [ [ [ [ [ [ [ Z [ [ [ [ [ [ [ [ [ [ H s [ [ [ [ [ [ [ [ [ [ [ [ [ [ h = ( [ [ [ [ [ [ [ [ [ [ [ [ [ [ [ [ [ [ [ F G [ [ [ [ [ ",
"[ [ [ [ [ [ [ [ M E [ [ [ [ [ [ [ [ [ p W [ [ [ [ [ [ [ [ [ [ [ [ [ [ [ i = W [ [ [ [ [ [ [ [ [ [ [ [ [ [ [ [ [ [ h  .[ [ [ [ [ ",
"[ [ [ [ [ [ [ [ R M [ [ [ [ [ [ [ [ M m [ [ [ [ [ [ [ [ [ [ [ [ [ [ [ [ { p % H [ [ [ [ [ [ [ [ [ [ [ [ [ [ [ [ { v [ [ [ [ [ [ ",
"[ [ [ [ [ [ [ [ { v [ [ [ [ [ [ [ G v [ [ [ [ [ [ [ [ [ [ [ [ [ [ [ [ [ [ [ D # 1 G [ [ [ [ [ [ [ [ [ [ [ [ [ [ F F [ [ [ [ [ [ ",
"[ [ [ [ [ [ [ [ [ v { [ [ [ [ [ [ M [ [ [ [ [ [ [ [ [ [ [ [ [ [ [ [ [ [ [ [ [ [ b % ; m { [ [ [ [ [ [ [ [ [ [ [ v { [ [ [ [ [ [ ",
"[ [ [ [ [ [ [ [ [ S H [ [ [ [ [ [ [ [ [ [ [ [ [ [ [ [ [ [ [ [ [ [ [ [ [ [ [ [ [ [ { m ; $ w T [ [ [ [ [ [ [ [ W n [ [ [ [ [ [ [ ",
"[ [ [ [ [ [ [ [ [ W h [ [ [ [ [ [ [ [ [ [ [ [ [ [ [ [ [ [ [ [ [ [ [ [ [ [ [ [ [ [ [ [ [ Y d 7 G [ [ [ [ [ [ [ n ! [ [ [ [ [ [ [ ",
"[ [ [ [ [ [ [ [ [ [ h E [ [ [ [ [ [ [ [ [ [ [ [ [ [ [ [ [ [ [ [ [ [ [ [ [ [ [ [ [ [ [ [ [ [ [ [ [ [ [ [ [ [ ! h [ [ [ [ [ [ [ [ ",
"[ [ [ [ [ [ [ [ [ [ ! h [ [ [ [ [ [ [ [ [ [ [ [ [ [ [ [ [ [ [ [ [ [ [ [ [ [ [ [ [ [ [ [ [ [ [ [ [ [ [ [ [ [ h W [ [ [ [ [ [ [ [ ",
"[ [ [ [ [ [ [ [ [ [ [ n U [ [ [ [ [ [ [ [ [ [ [ [ [ [ [ [ [ [ [ [ [ [ [ [ [ [ [ [ [ [ [ [ [ [ [ [ [ [ [ [ F M [ [ [ [ [ [ [ [ [ ",
"[ [ [ [ [ [ [ [ [ [ [ { p [ [ [ [ [ [ [ [ [ [ [ [ [ [ [ [ [ [ [ [ [ [ [ [ [ [ [ [ [ [ [ [ [ [ [ [ [ [ [ ! h [ [ [ [ [ [ [ [ [ [ ",
"[ [ [ [ [ [ [ [ [ [ [ [ F f [ [ [ [ [ [ [ [ [ [ [ [ [ [ [ [ [ [ [ [ [ [ [ [ [ [ [ [ [ [ [ [ [ [ [ [ [ { c W [ [ [ [ [ [ [ [ [ [ ",
"[ [ [ [ [ [ [ [ [ [ [ [ [ i a [ [ [ [ [ [ [ [ [ [ [ [ [ [ [ [ [ [ [ [ [ [ [ [ [ [ [ [ [ [ [ [ [ [ [ [ J H [ [ [ [ [ [ [ [ [ [ [ ",
"[ [ [ [ [ [ [ [ [ [ [ [ [ { ; N [ [ [ [ [ [ [ [ [ [ [ [ [ [ [ [ [ [ [ [ [ [ [ [ [ [ [ [ [ [ [ [ [ [ P B [ [ [ [ [ [ [ [ [ [ [ [ ",
"[ [ [ [ [ [ [ [ [ [ [ [ [ [ Y ; [ [ [ [ [ [ [ [ [ [ [ [ [ [ [ [ [ [ [ [ [ [ [ [ [ [ [ [ [ [ [ [ [ P P [ [ [ [ [ [ [ [ [ [ [ [ [ ",
"[ [ [ [ [ [ [ [ [ [ [ [ [ [ [ 4 F [ [ [ [ [ [ [ [ [ [ [ [ [ [ [ [ [ [ [ [ [ [ [ [ [ [ [ [ [ [ [ F n [ [ [ [ [ [ [ [ [ [ [ [ [ [ ",
"[ [ [ [ [ [ [ [ [ [ [ [ [ [ [ F 6 [ [ [ [ [ [ [ [ [ [ [ [ [ [ [ [ [ [  .` / H I P S M G _ } [ F n [ [ [ [ [ [ [ [ [ [ [ [ [ [ [ ",
"[ [ [ [ [ [ [ [ [ [ [ [ [ [ [ [ 9 G [ [  .` ' _ E / H F m f p 8 2 > e r 7 0 8 w w 8 , .   X $ e [ [ [ [ [ [ [ [ [ [ [ [ [ [ [ [ ",
"[ [ [ [ [ [ [ [ [ [ [ [ [ [ [ [ W g 7 * + $ $ $ * = ; 2 8 s M T ` ..{ [ [ [ [ [ [ E u w w @ 3 w { [ [ [ [ [ [ [ [ [ [ [ [ [ [ [ ",
"[ [ [ [ [ [ [ [ [ [ [ [ [ [ [ [ Y 3 M /  .{ [ [ [ [ [ [ [ [ [ [ [ [ [ [ [ [ [ [ [ [ [ ! w P [ [ [ [ [ [ [ [ [ [ [ [ [ [ [ [ [ [ ",
"[ [ [ [ [ [ [ [ [ [ [ [ [ [ [ [ [ [ [ [ [ [ [ [ [ [ [ [ [ [ [ [ [ [ [ [ [ [ [ [ [ R p 5 G [ [ [ [ [ [ [ [ [ [ [ [ [ [ [ [ [ [ [ ",
"[ [ [ [ [ [ [ [ [ [ [ [ [ [ [ [ [ [ [ [ [ [ [ [ [ [ [ [ [ [ [ [ [ [ [ [ [ [ [ [ [ g M [ [ [ [ [ [ [ [ [ [ [ [ [ [ [ [ [ [ [ [ [ ",
"[ [ [ [ [ [ [ [ [ [ [ [ [ [ [ [ [ [ [ [ [ [ [ [ [ [ [ [ [ [ [ [ [ [ [ [ [ [ [ [ [ [ [ [ [ [ [ [ [ [ [ [ [ [ [ [ [ [ [ [ [ [ [ [ ",
"[ [ [ [ [ [ [ [ [ [ [ [ [ [ [ [ [ [ [ [ [ [ [ [ [ [ [ [ [ [ [ [ [ [ [ [ [ [ [ [ [ [ [ [ [ [ [ [ [ [ [ [ [ [ [ [ [ [ [ [ [ [ [ [ ",
"[ [ [ [ [ [ [ [ [ [ [ [ [ [ [ [ [ [ [ [ [ [ [ [ [ [ [ [ [ [ [ [ [ [ [ [ [ [ [ [ [ [ [ [ [ [ [ [ [ [ [ [ [ [ [ [ [ [ [ [ [ [ [ [ ",
"[ [ [ [ [ [ [ [ [ [ [ [ [ [ [ [ [ [ [ [ [ [ [ [ [ [ [ [ [ [ [ [ [ [ [ [ [ [ [ [ [ [ [ [ [ [ [ [ [ [ [ [ [ [ [ [ [ [ [ [ [ [ [ [ ",
"[ [ [ [ [ [ [ [ [ [ [ [ [ [ [ [ [ [ [ [ [ [ [ [ [ [ [ [ [ [ [ [ [ [ [ [ [ [ [ [ [ [ [ [ [ [ [ [ [ [ [ [ [ [ [ [ [ [ [ [ [ [ [ [ ",
"[ [ [ [ [ [ [ [ [ [ [ [ [ [ [ [ [ [ [ [ [ [ [ [ [ [ [ [ [ [ [ [ [ [ [ [ [ [ [ [ [ [ [ [ [ [ [ [ [ [ [ [ [ [ [ [ [ [ [ [ [ [ [ [ "
};
